<svg width="384" height="237" viewBox="0 0 384 237" fill="none" xmlns="http://www.w3.org/2000/svg">
<path d="M381.597 173.405C382.887 173.796 382.614 171.525 381.545 171.839C381.066 171.979 380.001 173.571 379.655 171.636L380.358 171.813C380.705 170.216 378.788 171.289 379.334 169.461C379.577 168.642 380.963 169.332 380.48 168.491C380.466 168.465 379.846 168.402 380.181 168.1C380.307 167.986 380.899 168.399 380.716 167.569C380.428 167.728 379.891 167.392 379.832 167.392V166.684C379.589 166.459 379.161 167.185 379.124 166.153L379.839 165.877C379.706 165.494 379.57 164.62 379.124 164.738C379.117 164.679 379.135 164.616 379.124 164.561C379.374 163.153 380.211 164.694 380.639 163.85C380.812 163.506 380.288 163.274 380.347 162.891C380.361 162.791 381.346 162.566 380.73 161.8C380.001 160.893 378.368 162.382 378.061 162.083C378.024 161.438 377.97 160.247 378.718 159.997C379.178 159.842 379.898 160.14 380.011 159.33C380.129 158.497 379.569 158.582 379.223 158.18C378.669 157.542 379.282 157.34 379.307 156.849C379.326 156.451 378.938 156.234 378.972 156.012C379.028 155.64 379.786 155.212 379.447 154.242C379.13 153.335 378.087 154.18 377.881 154.047C377.708 153.936 377.483 153.294 377.177 153.151C377.107 153.003 378.166 153.251 377.808 152.167C377.413 150.976 375.914 151.798 375.762 151.643C375.7 151.58 375.965 149.951 376.02 149.87C376.27 149.487 377.122 149.852 377.015 149.082C376.957 148.647 376.522 148.743 376.47 148.551C376.445 148.455 377.45 147.26 376.983 146.711C376.894 146.608 375.664 146.63 375.762 146.077C375.862 145.532 376.894 146.361 377.27 145.635C377.668 144.868 376.116 144.971 377.178 144.216L377.356 143.508C376.932 142.818 376.836 142.048 375.763 142.269C375.804 142.103 375.915 141.443 375.959 141.406C376.088 141.303 377.165 141.616 376.98 140.786C376.892 140.392 375.705 140.34 375.491 139.788C375.384 139.507 375.624 139.22 375.554 138.869C375.499 138.6 374.998 138.091 375.064 137.771C375.134 137.446 375.915 137.502 376.247 137.357C377.385 136.867 376.634 135.017 375.09 135.665C374.816 135.779 374.99 136.104 374.64 136.056C374.014 135.974 374.11 135.097 373.722 135.012C373.25 134.912 373.339 135.842 372.93 135.897C372.977 135.37 373.151 134.953 373.11 134.396C373.077 133.921 372.539 132.825 372.587 132.634C372.638 132.423 373.07 132.423 373.113 132.243C373.397 131.063 371.867 131.708 371.587 131.307C371.348 130.964 371.713 130.046 371.34 129.785C371.082 129.604 369.951 129.567 369.563 129.527C369.409 129.38 369.972 128.295 370.145 128.166C370.351 128.015 370.872 128.03 370.952 127.909C371.034 127.787 370.956 127.322 371.059 127.046C371.221 126.611 371.878 125.704 371.605 125.284C371.464 125.066 370.868 124.956 370.827 124.451C370.794 124.016 371.467 124.237 371.154 122.98L370.623 122.272C370.42 122.228 370.137 122.305 369.916 122.272C369.85 121.841 370.196 121.608 370.269 121.21C371.33 120.812 372.016 120.001 370.446 119.618C370.399 119.267 369.415 118.423 370.8 118.379C370.718 117.97 371.135 117.163 371.153 116.786C371.172 116.377 370.906 115.972 370.976 115.547C371.153 115.536 371.329 115.559 371.507 115.547C371.684 115.536 371.934 115.643 372.056 115.444C372.185 115.231 372.719 113.771 372.391 113.602V113.424C372.461 113.377 372.508 113.291 372.568 113.247L372.395 113.158L373.807 111.831C374.241 110.316 373.858 110.946 372.745 110.5C372.413 110.367 370.416 109.468 370.346 109.357C370.147 109.044 370.49 108.656 370.622 108.291C370.984 107.303 370.202 107.012 369.384 107.407C369.111 107.241 369.089 107.75 368.853 107.053C369.826 106.998 369.292 105.664 368.5 105.815C368.485 105.785 368.227 105.409 368.146 105.284C368.6 104.952 369.624 104.804 369.119 104.038C368.979 103.824 368.242 103.938 368.931 103.145C369.259 102.769 369.838 102.906 369.539 102.039C369.292 101.321 367.796 102.142 367.265 101.925C367.225 101.906 367.095 101.556 366.915 101.475C366.623 101.346 366.361 101.615 366.144 101.586C366.055 101.574 365.661 100.723 365.141 100.867C365.086 99.894 364.765 99.861 364.08 99.452C363.442 99.073 363.475 98.994 363.019 98.659C362.614 98.36 361.906 98.39 361.618 97.933C361.401 97.589 361.464 97.162 361.342 96.794C361.242 96.502 360.937 96.314 360.893 95.99C360.827 95.489 361.236 94.736 361.073 94.143C361.243 94.25 361.541 94.356 361.781 94.496C361.07 95.894 361.335 97.714 363.02 98.036C363.274 96.841 361.748 95.983 362.312 94.851C362.33 94.818 362.569 94.777 362.632 94.559C362.732 94.209 362.647 93.796 362.665 93.435C364.939 92.967 364.67 90.32 363.764 88.709C363.535 88.3 360.76 85.199 360.351 84.867C359.528 84.192 357.808 84.366 357.709 84.234C357.631 84.126 358.036 83.507 357.856 83.205C357.819 83.139 356.673 82.53 356.514 82.501C355.504 82.305 354.565 83.359 353.68 83.658C352.796 83.957 351.595 83.957 350.625 84.142C348.731 84.504 346.604 84.979 344.702 85.122C344.197 85.159 341.322 85.141 341.079 85.03C340.817 84.909 340.684 84.425 340.286 84.415C339.977 84.408 338.72 85.152 338.115 85.255C336.914 85.461 334.602 85.505 333.419 85.255C332.708 85.108 332.354 84.301 331.521 85.203C331.038 85.727 331.259 86.445 330.36 86.523C329.243 86.619 327.718 85.299 326.486 85.291C326.173 85.291 324.784 85.663 324.551 85.836C324.142 86.145 324.374 86.725 323.983 86.861C323.49 87.034 321.856 86.842 321.167 86.875C317.039 87.074 314.175 86.41 310.183 85.844C308.89 85.659 304.954 85.604 304.024 84.925C303.604 84.619 303.811 84.133 303.741 84.058C303.435 83.752 300.01 84.08 299.325 83.874V84.758C299.594 84.784 300.11 84.312 300.033 84.843C299.982 85.204 299.668 86.089 299.521 86.461C299.447 86.641 299.617 86.763 299.241 86.704C298.965 86.056 297.534 85.879 297.398 85.344C297.258 84.79 298.099 84.591 298.095 84.138C298.095 83.82 297.645 83.6 297.52 83.294C297.332 82.84 297.317 82.08 297.107 81.76C296.705 81.144 295.316 80.595 294.814 80.16C294.316 79.729 292.853 77.528 292.197 77.698C291.501 77.875 291.391 80.146 291.176 80.319C290.475 80.887 289.425 78.461 288.979 78.037C288.121 77.226 286.314 77.067 285.267 76.264C285.094 76.131 283.303 74.152 283.156 73.952C282.637 73.248 282.319 72.397 281.284 71.932C281.132 71.866 279.799 71.659 279.614 71.67C279.054 71.703 278.855 72.231 278.509 72.334C277.59 72.607 276.817 71.943 276.456 72.039C276.183 72.109 275.763 72.902 275.457 73.178C275.085 73.517 274.407 73.749 274.034 74.317C273.05 71.567 272.479 68.393 271.414 65.701C268.859 59.257 264.824 52.898 262.215 46.414C257.593 40.947 253.521 33.975 248.732 28.756C247.531 27.444 245.997 26.459 244.667 25.302C244.321 25 243.956 24.722 243.605 24.417C239.721 21.037 235.836 17.438 231.752 14.331C230.96 13.726 229.275 12.137 228.309 12.019C227.79 11.956 225.537 12.288 225.022 12.465C224.314 12.709 223.975 13.711 223.791 13.8C223.688 13.847 223.315 13.741 223.26 13.8C223.164 13.91 223.51 16.068 223.437 16.716C223.356 17.42 222.951 17.892 222.906 18.574C221.263 19.061 219.287 19.437 217.599 19.636C217.471 20.716 217.77 20.171 218.362 20.373C218.565 20.443 218.675 20.723 218.837 20.871C218.819 21.041 218.867 21.24 218.837 21.402C219.29 21.357 219.216 21.671 219.368 21.755C219.943 22.08 220.403 22.038 220.429 22.817C220.366 22.96 220.355 23.263 220.252 23.525C219.592 23.237 218.616 23.485 218.055 23.359C217.845 23.311 217.985 23.104 217.952 22.994C218.38 22.702 218.744 21.914 218.836 21.402C218.081 21.472 218.007 22.271 217.775 22.817C217.683 23.027 217.443 23.823 217.395 23.857C217.108 24.044 215.869 23.691 215.467 23.964C215.405 24.004 214.937 25.088 214.848 25.299C214.745 25.556 214.811 25.9 214.767 26.007H215.12C215.312 25.635 215.592 25.299 215.747 24.945C215.838 24.739 215.798 24.281 215.835 24.244C215.887 24.189 217.399 24.078 217.24 24.495L214.413 32.73C213.86 33.118 213.2 33.766 212.644 34.145C211.306 35.059 209.906 35.841 208.575 36.799C208.505 36.851 208.467 37.094 208.397 37.153C208.372 37.174 207.944 37.459 207.867 37.506C207.524 37.72 206.462 37.738 206.452 38.568C206.422 38.538 206.316 38.598 206.275 38.568C205.931 38.332 205.94 38.166 205.744 38.391C205.339 38.863 204.781 39.169 204.248 39.464C203.591 39.825 203.223 40.057 202.56 40.514C202.106 39.932 201.62 38.678 201.145 38.213C201.071 38.139 200.89 38.106 200.791 38.036C200.703 38.095 200.415 38.102 200.205 38.239C196.04 40.93 190.593 45.092 186.339 47.208C185.444 47.655 184.275 47.957 183.277 47.949L182.937 58.405C183.767 58.608 185.621 56.967 186.023 56.964C186.299 56.964 187.364 58.579 187.519 58.918C187.629 59.15 187.711 59.36 187.696 59.626C186.867 59.741 186.222 60.666 185.445 60.824C184.685 60.979 183.395 60.485 183.628 61.395C182.847 61.442 183.027 60.437 182.57 60.156C182.731 61.749 180.606 61.148 179.466 61.211C178.139 61.281 176.971 61.442 175.585 61.395C174.823 61.369 174.612 60.801 174.255 61.749C174.229 61.819 174.14 61.877 174.077 61.926C173.941 61.587 173.834 61.211 173.72 60.864C173.237 60.698 173.407 61.189 173.37 61.218C173.234 61.321 171.929 61.255 171.685 61.568C171.43 61.893 171.423 63.072 171.423 63.518C171.014 63.497 170.59 63.548 170.184 63.518C170.126 63.514 170.067 63.522 170.007 63.518C169.856 63.507 169.612 63.352 169.299 63.341C168.308 63.308 167.092 63.271 166.115 63.341C165.949 63.352 165.772 63.29 165.606 63.36C165.381 63.573 165.274 68.683 165.23 69.535C164.239 69.767 164.014 69.626 163.284 69.004C163.052 68.805 162.452 68.193 162.223 67.942C161.512 67.168 157.417 61.58 157.004 61.575C156.487 61.977 156.027 65.295 155.839 65.45C155.71 65.553 155.227 65.406 155.147 65.468C154.733 65.782 155.659 65.763 155.5 66.084C155.18 66.722 154.081 65.829 153.908 66.446C153.772 66.936 155.673 68.167 154.523 69.184C154 69.158 154.353 68.152 154.224 67.716C153.841 66.407 152.558 67.904 152.216 67.952C151.442 68.06 150.48 67.219 150.271 66.54C150.134 66.101 150.304 65.534 150.035 65.184C149.869 64.971 149.427 64.952 149.216 64.763C148.852 64.443 148.723 63.812 148.07 63.698C147.561 61.346 147.893 61.401 148.225 59.164C148.314 58.551 148.129 57.417 148.417 56.915C148.527 56.719 148.814 56.84 148.907 56.76C149.022 56.664 148.929 56.468 148.952 56.447C149.007 56.384 149.073 56.332 149.129 56.269C149.977 55.292 150.293 55.783 151.259 55.481C152.519 55.086 150.628 53.652 150.19 53.084C148.923 51.44 146.497 48.83 145.554 47.193C144.201 44.852 142.793 40.539 141.699 37.866C140.055 33.856 138.555 29.774 136.904 25.763C136.554 25.085 135.81 25.874 135.434 25.845C135.334 25.838 135.186 25.333 134.87 25.144C134.48 24.912 134.129 25.034 133.916 24.948C133.076 24.624 132.224 24.115 131.262 24.064C130.783 22.969 130.736 23.552 130.378 23.533C129.759 23.503 126.501 21.527 125.778 21.055C125.365 20.786 124.949 20.458 124.54 20.171C123.824 19.67 123.128 19.095 122.417 18.578C121.263 17.741 120.748 17.17 119.409 16.455C119.287 16.392 119.177 16.338 119.055 16.278C118.09 15.806 117.419 15.551 116.402 15.216C115.448 14.899 114.714 14.733 113.749 14.508C113.686 14.494 113.561 14.368 113.395 14.331C112.99 14.242 112.355 14.261 111.803 14.154C111.151 14.028 110.513 13.914 109.857 13.8C109.117 13.671 108.099 13.125 107.38 13.623C107.359 13.59 106.905 13.644 106.938 13.092C106.842 12.956 106.333 13.583 106.319 13.623C106.532 12.915 105.611 12.933 105.169 12.904C104.535 12.864 103.584 12.717 102.78 12.561C101.922 12.395 101.011 12.196 100.127 12.03C99.983 12.005 99.799 11.89 99.596 11.853C98.722 11.691 97.772 11.65 96.943 11.499C96.762 11.466 96.519 11.374 96.235 11.322C95.358 11.163 94.465 10.95 93.581 10.791C84.042 9.077 74.493 7.378 64.922 5.837C64.815 5.748 64.77 5.627 64.568 5.659C64.351 5.63 64.056 5.704 63.86 5.659C62.445 5.335 61.041 5.037 59.615 4.775C59.349 4.728 58.995 4.823 58.731 4.775C58.553 4.742 58.314 4.649 58.023 4.598C57.669 4.535 57.315 4.483 56.961 4.421C56.143 4.277 55.314 4.033 54.484 3.89C53.61 3.738 52.722 3.547 51.831 3.536C51.384 3.223 50.131 3.127 49.531 3.005C49.372 2.972 49.159 3.035 49 3.005C47.467 2.703 45.94 2.397 44.4 2.121C44.238 2.091 44.031 2.151 43.869 2.121C42.399 1.859 40.928 1.48 39.446 1.237C39.041 1.171 38.621 1.126 38.208 1.059C36.8444 0.841998 35.6759 0.689999 34.3157 0.528999C33.5232 0.432999 32.5721 0.311001 31.8384 -0.0019989H30.9543C30.236 0.127001 29.4693 1.059 29.0087 1.237C28.7655 1.333 28.3564 1.167 27.9947 1.466C27.2095 2.114 25.9678 5.517 25.2042 6.195C24.7178 6.63 23.8182 6.35 22.9114 7.619C22.6497 7.984 21.0535 11.177 21.0792 11.386C21.0865 11.452 21.3296 11.799 21.3966 11.854C20.4455 13.513 19.6943 15.334 18.7432 16.986C18.4814 17.439 18.4113 17.638 18.2125 18.048C18.2083 18.059 18.0466 18.221 18.0352 18.225C16.7234 18.847 16.2288 19.655 15.2045 20.703C13.6341 21.322 11.9946 19.995 10.4283 20.172C9.69461 20.253 9.12371 20.946 8.69191 21.532C8.04691 22.402 3.40251 30.343 3.37371 30.882C3.36231 31.078 3.53551 31.265 3.53241 31.321C3.49941 32.014 2.69971 32.483 2.64821 33.622C2.61111 34.466 3.19331 35.55 3.14181 35.812C2.99451 36.564 0.734607 37.271 1.40961 38.223C1.33541 38.215 1.03351 38.419 0.878906 38.4V38.931C1.35811 38.846 1.76721 40.121 1.76301 40.523C1.75171 42.356 1.68581 43.483 1.94751 45.386C1.98051 45.641 1.78161 45.91 2.20201 45.832L10.2552 37.338C10.3294 37.413 10.5097 37.446 10.6086 37.516C8.9908 39.189 7.42451 41.301 5.83241 43.001C5.7582 43.082 5.6191 43.207 5.4789 43.355C5.4604 43.376 5.26871 43.333 5.19141 43.413C4.76791 43.867 2.22061 46.451 2.15461 46.661C1.83421 47.72 2.74821 50.086 2.47201 51.314C2.77811 51.395 2.82551 51.188 3.00271 51.052C4.04551 50.252 7.35541 46.249 7.95621 46.009C8.03761 45.976 8.20351 46.03 8.30961 46.009C7.34721 47.012 6.3157 48.449 5.3017 49.548C5.246 49.611 5.1801 49.663 5.1245 49.725C4.332 50.592 3.3335 51.322 2.673 52.332L3.18201 56.804C3.48811 56.882 3.53551 56.675 3.71271 56.538C5.11721 55.458 6.1044 53.593 7.6048 52.557C7.63061 52.612 7.74081 52.667 7.78201 52.734C6.75361 53.807 5.3604 55.178 4.4248 56.365C4.299 56.524 3.75391 57.209 3.88991 57.331C5.39341 56.929 6.84221 57.64 8.36121 57.659C10.5324 55.377 12.8798 53.224 14.8593 50.787C14.881 50.817 15.1509 50.846 15.2128 50.964C13.9484 52.288 12.7438 54.053 11.4979 55.388C10.8054 56.132 9.72861 56.877 9.10931 57.689C8.97331 57.866 8.76611 57.913 8.84751 58.219C10.654 58.285 12.4047 58.736 14.1844 58.986C14.512 59.034 14.7552 59.333 14.6852 58.75C15.256 58.92 18.0136 59.377 18.4515 59.244C18.9936 59.078 21.3224 56.38 21.7614 55.742C21.8531 55.842 22.0706 55.896 22.1149 56.095C21.6573 56.574 21.1421 57.596 20.43 58.038L19.1069 59.808C20.4558 59.413 21.9407 60.213 23.2237 59.944C24.9889 59.575 27.5362 55.693 29.0139 54.499C29.0881 54.573 29.2684 54.606 29.3673 54.676C29.3302 54.713 29.3302 54.975 29.1942 55.115C28.3502 55.996 27.292 56.796 26.7139 57.862C26.1347 58.245 25.5566 58.474 25.299 59.277C25.6751 59.569 27.8938 57.817 27.9525 57.154C28.6305 56.745 31.8446 54.743 32.3021 54.684C32.9245 54.6 32.807 55.274 33.0688 55.849C33.1162 55.956 33.0286 56.225 33.3449 56.092C33.5109 56.022 35.8325 53.663 35.884 53.49C36.0386 52.952 35.5192 51.661 35.7367 50.964C35.7696 51.016 35.9685 51.016 36.0499 51.263C36.12 51.469 36.4261 53.567 36.4003 53.688C36.3117 54.146 34.2961 55.842 33.9529 56.358C33.8458 56.52 33.7396 56.634 33.8128 56.852C34.6609 58.337 35.0473 60.609 35.9397 61.998C36.8681 63.45 39.404 65.46 40.687 67.071C40.816 67.233 40.975 67.72 41.222 68.041C41.661 68.605 42.239 69.291 42.807 69.726C42.788 68.657 43.304 67.397 42.984 66.364C43.183 66.64 43.415 66.596 43.503 67.171C43.662 68.2 43.039 69.446 43.426 70.433C43.47 70.544 43.673 70.577 43.688 70.611C43.735 70.718 43.854 70.877 43.865 70.964C43.924 71.422 43.662 72.192 43.519 72.652C42.354 76.384 40.22 80.099 39.092 83.882C39.564 83.974 39.398 83.782 39.523 83.529C40.816 80.893 43.599 74.028 44.045 71.319C44.55 71.216 44.433 71.602 44.399 71.931C44.226 73.645 40.761 81.793 39.85 83.839C39.736 84.093 39.427 83.99 39.43 84.314C39.437 84.845 40.779 89.472 41.062 89.958C41.604 90.891 43.203 91.931 43.937 92.745C45.466 94.445 44.977 98.854 45.293 101.121C45.437 101.796 46.023 102.075 46.525 102.455C47.513 103.208 48.504 103.433 49.178 104.579C49.922 105.843 50.398 108.973 50.715 110.562C51.083 112.405 51.636 114.3 51.65 116.169C50.01 123.228 46.545 130.078 46.339 137.396C46.318 138.229 46.542 138.916 46.527 139.697C46.49 141.703 45.756 144.161 45.631 146.248C45.617 146.514 45.643 146.786 45.638 147.048C45.816 147.055 45.992 147.044 46.169 147.048C47.695 147.085 49.276 147.31 50.769 147.402C50.946 147.413 51.123 147.39 51.3 147.402C52.881 147.502 54.495 147.483 56.076 147.579C56.142 147.583 56.434 147.733 56.784 147.756C58.192 147.841 59.618 147.848 61.03 147.933C61.464 147.959 62.014 147.919 62.268 147.933C63.853 148.025 65.46 148.195 67.044 148.287C67.28 148.301 67.516 148.273 67.752 148.287C69.4 148.383 71.062 148.545 72.706 148.64C73.421 148.681 74.139 148.777 74.829 148.818C75.942 148.884 77.103 148.932 78.19 148.995C78.426 149.009 78.662 148.981 78.898 148.995C80.479 149.087 82.093 149.08 83.674 149.172C83.862 149.184 84.19 149.327 84.558 149.35C86.139 149.441 87.75 149.434 89.335 149.527C89.582 149.541 89.781 149.523 89.865 149.527C90.688 149.574 91.513 149.656 92.343 149.704C92.707 149.726 93.121 149.856 93.581 149.881C94.458 149.933 95.358 149.83 96.235 149.881C96.301 149.886 96.592 150.04 96.943 150.059C97.82 150.11 98.719 150.007 99.596 150.059C99.626 150.059 99.839 150.221 100.127 150.236C101.004 150.288 101.903 150.184 102.78 150.236C102.81 150.236 103.023 150.398 103.311 150.413C104.251 150.469 105.235 150.539 106.142 150.591C106.319 150.602 106.495 150.579 106.672 150.591C107.556 150.642 108.46 150.716 109.326 150.768C109.503 150.779 109.679 150.757 109.856 150.768C110.8 150.824 111.747 150.889 112.687 150.945C112.864 150.956 113.041 150.934 113.218 150.945C114.106 150.997 114.99 151.067 115.871 151.122C117.051 151.197 118.23 151.233 119.41 151.3C119.527 151.307 119.646 151.292 119.763 151.3C120.644 151.347 121.544 151.358 122.417 151.477C122.59 151.499 124.256 151.466 124.362 151.477C124.477 151.491 124.598 151.466 124.716 151.477C125.49 151.547 126.238 151.603 127.016 151.654C127.186 151.666 127.296 151.65 127.369 151.654C127.428 151.658 127.487 151.65 127.547 151.654C128.413 151.71 129.821 152.008 130.642 152.008H133.473C134.796 152.008 136.568 152.277 137.984 152.361H138.161C138.279 152.369 138.397 152.354 138.515 152.361C144.527 152.715 150.549 153.062 156.561 153.423C157.832 153.515 160.327 153.57 160.983 153.6C161.676 153.633 162.288 153.836 163.106 153.778C163.22 153.77 163.372 153.803 163.46 153.778C163.548 154.338 164.731 155.204 165.225 155.639C173.02 162.485 181.158 169.121 189.112 175.719C189.168 175.767 189.219 175.837 189.289 175.897C189.665 176.206 190.196 176.726 190.704 177.135C190.767 177.187 190.814 177.261 190.881 177.313C191.243 177.589 191.095 177.722 191.766 178.021C192.057 178.411 192.252 178.799 192.827 178.729C193.453 179.758 193.199 179.315 194.066 179.791C194.154 179.838 194.187 179.912 194.243 179.968C194.228 180.145 194.302 180.215 194.42 180.321C196.241 182.007 198.165 183.558 200.081 185.099C200.166 185.165 200.303 185.335 200.435 185.452C200.586 185.585 200.634 185.832 200.966 185.806C201.08 186.388 202.429 187.155 202.912 187.576C206.417 190.624 210.004 193.589 213.527 196.6C213.992 196.998 214.585 197.33 214.766 197.485C215.105 197.776 215.614 198.211 216.004 198.546C216.21 198.724 216.638 199.243 217.066 199.608C218.639 200.95 220.254 202.325 221.842 203.678C222.078 203.881 222.295 203.966 222.373 204.032C225.886 207.022 229.372 210.424 233.043 213.359L234.226 213.764C234.226 213.764 235.918 214.752 237.234 215.003C237.297 215.05 237.348 215.143 237.411 215.18H240.242C243.024 214.671 244.396 213.878 246.788 212.526C247.823 211.939 249.614 210.992 250.495 210.303C250.743 210.111 250.945 210.011 250.68 209.695C251.295 209.348 252.183 208.949 252.452 208.279L252.36 208.983C255.383 207.38 258.162 205.334 261.066 203.535C261.851 203.049 262.658 202.558 263.421 202.086C264.27 201.562 265.062 201.046 265.899 200.493H266.076C265.98 200.998 266.326 200.895 266.655 200.811C267.51 200.582 268.443 199.86 269.467 199.55C275.755 197.656 284.386 196.576 291.022 195.363C291.372 195.3 291.73 195.248 292.083 195.185C292.322 195.141 292.551 195.052 292.791 195.008C293.355 194.905 293.918 194.739 294.383 194.654C294.708 194.596 295.131 194.699 295.51 194.633C297.995 194.191 300.468 193.644 302.963 193.235C302.885 193.847 303.316 194.098 303.409 194.301C303.696 194.932 304.087 195.856 304.061 196.55C304.047 196.989 303.671 197.295 303.596 197.763C303.316 199.496 303.862 200.134 304.994 201.298C306.487 202.832 308.385 204.203 309.954 205.626C309.992 205.659 309.992 205.951 310.124 206.068C312.027 207.75 312.871 208.14 315.524 207.927C317.113 207.798 316.873 207.709 318.55 207.912C319.707 208.053 320.887 208.041 321.984 208.458C322.043 209.136 322.113 210.143 322.239 210.77C322.302 211.076 322.548 211.761 322.869 211.82L323.33 211.319L324.992 210.758C325.479 210.393 325.792 210.109 326.231 209.697C326.305 209.626 326.385 209.553 326.463 209.483C327.192 208.919 328.593 208.646 328.707 207.751C328.877 207.765 328.954 207.643 329.06 207.573C330.848 206.393 333.14 204.41 335.253 204.388C336.204 204.377 337.693 204.908 338.614 205.273C339.023 205.435 339.768 205.782 340.206 205.981C341.437 206.537 342.691 207.452 344.014 207.924C344.209 208.248 344.098 210.033 344.098 210.582C344.098 211.872 343.951 213.056 343.921 214.298C343.91 214.77 343.935 215.242 343.921 215.713C343.891 216.587 343.958 217.56 343.921 218.367C343.711 223.204 343.412 228.037 343.213 232.877C343.209 232.977 343.051 233.228 343.036 233.489C342.991 234.286 343.069 235.093 343.036 235.889C342.996 235.878 342.87 236.151 342.858 236.243H344.273V236.065C347.193 235.158 350.075 234.111 352.942 233.057C353.112 232.994 353.288 232.946 353.472 232.879C354.253 232.588 354.899 232.197 355.419 231.995C362.532 229.245 369.51 225.842 376.471 222.617C377.091 222.329 378.152 222.02 378.594 221.555C378.764 221.378 378.812 221.282 378.771 221.024C379.52 220.777 379.07 220.637 379.302 220.14C379.324 220.092 379.281 220.011 379.302 219.962C379.641 219.24 380.456 218.373 380.865 217.721C381.043 217.44 381.27 217.075 381.219 216.729C380.205 214.683 379.181 212.637 378.101 210.628C377.983 210.407 377.743 210.282 377.713 210.231C377.124 209.143 376.516 207.963 375.944 206.868C375.774 206.544 376.243 206.651 375.59 206.338C375.27 205.619 374.835 204.937 374.529 204.214C374.153 203.322 373.803 202.363 373.468 201.56C373.42 201.443 373.357 201.313 373.29 201.207C373.556 200.827 372.981 200.288 372.94 199.869C372.855 198.91 373.567 199.116 373.777 198.863C373.877 198.741 373.821 198.395 373.987 198.284C374.083 198.218 374.923 198.103 375.237 198.026L375.768 197.495C375.462 197.193 374.905 195.751 375.329 195.368C375.871 194.874 376.132 195.655 375.768 194.133C375.686 193.798 375.307 193.536 376.121 193.425C376.423 192.175 376.217 192.297 375.59 191.478C375.429 191.264 375.31 190.895 375.111 190.762C374.82 190.567 373.191 190.132 373.129 190.047C373.021 189.896 373.446 188.111 373.475 187.681C373.538 186.762 373.132 186.472 373.645 185.815C374.629 184.558 375.19 184.713 375.057 182.722L374.53 179.622C374.589 179.617 374.647 179.626 374.707 179.622L375.434 183.43C375.666 183.895 374.483 185.034 374.707 185.284C374.88 185.476 375.913 184.396 376.026 184.215C376.277 183.818 376.199 183.577 376.299 183.338C376.819 183.427 376.963 182.516 377.007 182.099C377.169 181.896 377.386 181.403 377.479 181.384C377.973 181.27 379.661 181.377 380.03 181.137C380.258 180.989 380.14 180.602 380.191 180.506C380.46 180.034 380.892 179.658 381.253 179.267C381.662 179.643 382.524 179.22 383.022 179.09V175.019C382.746 174.028 381.393 174.879 381.607 173.427L381.593 173.408L381.597 173.405Z" fill="#2E6955"/>
</svg>
