<svg width="376" height="227" viewBox="0 0 376 227" fill="none" xmlns="http://www.w3.org/2000/svg">
<path d="M375.724 135.097C375.71 134.522 375.809 133.813 375.687 133.275C375.465 132.291 374.128 131.267 374.684 129.722C374.81 129.375 375.266 129.497 375.344 129.415C375.528 129.217 374.824 125.581 374.662 125.013C374.643 124.232 374.327 121.371 373.848 120.962C373.6 120.748 372.885 120.515 372.539 120.412C372.532 119.767 372.546 119.11 372.539 118.466H369.885V117.935C370.762 116.825 371.054 114.662 371.12 113.246C371.204 111.502 370.77 111.23 369.855 109.906C369.734 109.733 369.446 109.659 369.398 109.574C369.298 109.39 368.912 107.432 368.812 107.329C368.66 107.178 367.684 107.425 367.404 107.5L367.581 108.558C367.275 107.994 367.368 107.482 366.873 107.496C365.646 107.534 365.65 107.788 365.989 108.912H365.812C365.716 108.484 365.417 107.979 365.37 107.492L365.182 107.341L338.84 109.269C336.537 109.664 334.137 109.852 331.853 110.331L341.281 105.52C341.937 105.185 343.212 105.202 343.772 104.827C344.148 104.576 344.107 104.149 344.277 104.004C344.469 103.843 345.394 103.651 345.814 103.329C346.753 102.611 347.115 101.217 346.749 100.111C346.462 99.245 343.697 94.795 343.034 93.918C342.249 92.878 341.66 92.565 340.292 92.849C339.736 92.966 336.271 94.785 335.737 95.194C333.982 96.539 330.421 103.426 329.283 105.723C328.114 108.079 327.691 109.284 330.437 110.681C330.219 110.74 330.102 110.792 329.906 110.859C327.886 111.559 326.091 112.823 324.245 113.69C323.633 113.977 323.324 114.136 322.83 114.398C318.989 116.437 314.003 117.62 310.095 119.706C308.934 119.423 307.898 120.137 306.557 120.06C306.538 120.06 306.372 119.758 306.232 119.905C306.151 119.99 306.232 120.214 306.202 120.237C306.172 120.263 305.693 120.259 305.431 120.436C305.004 120.719 304.417 121.25 304.078 121.652C303.706 121.516 301.741 121.409 301.07 121.299C299.88 121.103 297.765 120.598 296.648 120.768C295.911 120.34 294.986 120.433 294.17 120.414C294.388 118.158 295.063 115.95 295.542 113.73C295.623 113.347 295.523 112.926 295.586 112.628C295.815 111.541 296.073 110.387 296.294 109.266C296.748 106.977 297.264 104.555 297.709 102.188L297.749 102.018C297.789 101.871 297.849 101.69 297.882 101.48C297.894 101.424 297.875 101.363 297.882 101.303L298.236 100.241C298.376 100.045 298.449 100.175 298.589 99.71C298.707 99.323 298.795 97.395 298.951 97.241C299.18 97.222 299.423 97.208 299.647 97.234C299.706 97.241 299.765 97.23 299.825 97.234C300.028 97.252 300.164 97.51 300.757 97.377C301.203 97.274 301.295 96.938 301.417 96.879C301.538 96.82 301.649 96.769 301.77 96.702C302.183 96.48 302.286 96.414 302.654 96.171C302.993 95.949 303.48 95.879 303.816 95.474C305.054 93.973 306.207 88.706 306.901 86.615C306.971 86.402 307.137 86.089 307.254 85.731C307.457 85.119 307.586 84.352 307.785 83.785C307.977 83.231 308.603 82.218 308.846 81.484C308.954 81.506 309.115 81.454 309.2 81.484C310.527 81.982 311.304 82.296 312.738 82.546C312.76 82.55 312.776 82.716 312.827 82.719C312.937 82.689 312.897 82.616 312.916 82.546C312.93 82.494 312.909 82.429 312.916 82.369C313.428 81.686 313.476 80.547 313.624 79.715C313.687 79.364 313.848 79.025 313.801 78.653C314.299 77.898 314.31 76.862 314.509 75.999C314.535 75.892 314.483 75.749 314.509 75.645C315.22 72.589 315.924 69.478 316.632 66.444C316.676 66.248 316.879 65.848 316.985 65.383C317.91 61.398 318.905 57.427 319.819 53.438C319.782 52.903 318.282 52.893 317.692 52.818C317.578 52.804 317.453 52.83 317.339 52.818C315.349 52.601 313.321 52.424 311.324 52.287C311.206 52.28 311.088 52.295 310.97 52.287C310.178 52.236 308.611 51.624 308.847 52.996C308.497 53.017 308.862 52.557 308.427 52.656C303.743 55.137 299.051 57.63 294.344 60.073C294.07 60.214 293.897 60.383 293.813 60.427C292.184 61.271 290.662 62.13 288.859 62.55C288.572 62.616 287.971 62.679 287.621 62.728C287.462 62.749 287.319 62.898 287.267 62.905C287.031 62.938 286.629 62.926 286.383 62.905C286.269 62.893 286.14 62.923 286.03 62.905C285.543 62.828 284.047 62.326 283.552 62.108C281.049 61.013 274.604 55.1 272.234 52.995C272.02 52.803 272.285 52.807 271.703 52.464C271.663 52.438 271.581 52.485 271.526 52.464C271.32 52.382 270.597 52.158 270.549 52.129C270.177 51.893 267.515 49.526 267.456 49.279C267.401 49.047 267.556 48.664 267.419 48.431C267.382 48.368 266.372 47.535 266.306 47.509C265.956 47.366 266.008 47.848 266.045 48.04C265.318 47.266 264.106 46.621 263.391 45.917C263.159 45.688 262.916 45.267 262.683 45.032C262.65 44.999 262.662 44.741 262.517 44.586C262.304 44.354 260.837 43.167 260.623 43.134C260.487 43.112 260.163 43.2 260.03 43.263C260.093 43.041 260.28 42.577 260.184 42.407C257.718 40.523 255.374 38.481 252.957 36.538C252.555 36.214 252.134 36.199 251.895 36.007C251.645 35.804 251.39 35.421 251.011 35.123C250.904 35.039 250.539 34.961 250.303 34.77C250.189 34.678 249.794 34.19 249.419 33.885C249.143 33.661 248.797 33.392 248.535 33.177C247.949 32.694 247.333 32.211 246.766 31.762C246.614 31.64 246.427 31.393 246.235 31.231C246.01 31.039 245.8 30.833 245.527 30.7C245.148 30.269 241.911 27.441 241.525 27.39C241.296 27.36 241.075 27.574 240.758 27.434C240.489 27.317 239.641 26.321 239.335 26.277L239.611 25.565C236.231 22.885 232.995 20.028 229.693 17.26C229.358 16.976 228.764 16.725 228.547 16.549C226.609 14.923 224.552 13.098 222.532 11.417C222.266 11.195 221.997 11.029 221.824 10.886C221.541 10.65 221.205 10.395 220.94 10.178C220.844 10.101 220.741 9.953 220.586 9.82401C220.329 9.611 220.06 9.238 219.702 8.94C219.577 8.833 219.404 8.807 219.349 8.763C218.995 8.468 218.641 8.16199 218.288 7.87799C217.82 7.50199 217.657 7.16299 217.049 6.81699C216.256 6.36699 216.4 6.49201 215.457 6.46301C214.9 6.44501 214.842 5.93999 214.395 6.99399C214.388 6.81699 214.403 6.64001 214.395 6.46301H213.334C213.268 6.95001 213.481 7.40699 213.511 7.87799H213.158C213.147 7.34799 213.165 6.81301 213.158 6.28601C212.823 6.24201 212.712 6.26001 212.45 6.46301C212.387 6.51101 212.291 6.55201 212.273 6.64001H211.565L211.387 6.46301L211.21 6.10999C205.678 5.90699 200.123 5.55301 194.584 5.22501H194.406C194.289 5.21801 194.17 5.23301 194.053 5.22501C192.892 5.15501 191.337 4.87201 190.249 4.87201H187.419C186.671 4.87201 185.359 4.74601 184.499 4.69501C184.382 4.68701 184.263 4.70201 184.146 4.69501C183.379 4.65001 182.491 4.566 181.669 4.517C181.551 4.51 181.433 4.524 181.315 4.517C181.198 4.51 181.079 4.524 180.962 4.517H180.785C180.656 4.51 180.287 4.363 179.9 4.34C179.019 4.288 178.135 4.21399 177.247 4.16299C177.129 4.15499 177.011 4.16999 176.893 4.16299C175.835 4.09999 174.771 4.04799 173.709 3.98499C172.88 3.93799 172.062 3.85701 171.232 3.80801C171.055 3.79701 170.879 3.81901 170.701 3.80801C169.757 3.75201 168.815 3.68601 167.871 3.63101H167.693C166.749 3.57501 165.807 3.50901 164.863 3.45401H164.685C163.797 3.40201 162.92 3.328 162.032 3.276C161.915 3.269 161.796 3.283 161.679 3.276C160.735 3.221 159.792 3.155 158.848 3.099H158.671C157.841 3.052 157.023 2.97 156.193 2.922C156.016 2.91 155.84 2.933 155.663 2.922C154.774 2.87 153.893 2.79599 153.009 2.74399C152.659 2.72299 152.298 2.76599 151.948 2.74399C150.547 2.66299 149.103 2.47099 147.702 2.39099C147.525 2.37999 147.349 2.40199 147.172 2.39099C145.704 2.30599 144.215 2.29899 142.749 2.21399C142.513 2.19899 142.277 2.22799 142.041 2.21399C140.629 2.13199 139.084 1.94499 137.618 1.85999C137.382 1.84599 137.146 1.87399 136.91 1.85999C135.384 1.77099 133.836 1.59399 132.31 1.50699C132.193 1.49899 132.074 1.51399 131.957 1.50699C130.431 1.41799 128.879 1.41801 127.357 1.32901C127.179 1.31801 127.003 1.34101 126.826 1.32901C125.355 1.24501 123.756 1.06301 122.226 0.976013C122.049 0.964013 121.872 0.987013 121.695 0.976013C120.173 0.887013 118.621 0.710009 117.095 0.622009C116.918 0.611009 116.742 0.634009 116.564 0.622009C116.329 0.608009 116.093 0.637009 115.857 0.622009C115.565 0.604009 115.267 0.641009 114.972 0.622009C114.051 0.571009 113.081 0.505007 112.142 0.445007C112.112 0.445007 111.899 0.283005 111.611 0.268005C110.819 0.227005 109.813 0.447996 109.134 0.0899963H108.426C107.998 2.966 107.906 6.151 107.316 8.978C106.9 10.973 105.831 12.893 105.771 14.954C105.757 15.002 105.617 15.064 105.594 15.131C105.517 15.375 105.51 15.721 105.417 16.016C104.989 17.398 104.514 18.899 104.19 20.185C103.851 21.52 104.075 22.187 104.002 23.271C103.95 24.056 103.544 25.011 103.475 25.841C103.384 26.895 103.534 28.045 103.475 29.111C103.475 29.089 103.295 28.915 103.291 28.683C103.272 27.651 103.394 26.593 103.21 25.572L102.055 30.434C102.177 30.678 102.527 30.475 102.686 30.357C103.276 29.933 102.856 29.258 103.471 29.284C103.527 30.6 102.793 30.386 102.502 30.881C102.306 31.213 102.461 31.71 102.181 32.068C101.898 32.426 100.106 33.207 99.591 33.632C98.758 34.321 98.289 36.519 97.987 37.602L97.714 37.945C97.618 38.1 97.684 38.369 97.633 38.487C96.494 41.116 94.868 45.308 94.183 48.043C93.505 50.756 93.456 53.93 93.037 56.713C93.774 56.47 97.67 54.314 98.049 54.427L101.174 58.037C102.799 58.258 104.484 58.435 106.125 58.483C107.411 58.52 108.528 58.229 110.017 58.483C110.496 58.565 114.255 59.582 114.407 59.755C114.543 59.91 114.532 60.868 114.617 61.137C115.166 62.866 116.917 64.027 116.917 66.003V69.277C116.15 69.284 115.376 69.377 114.617 69.454C111.374 69.786 107.209 69.912 104.109 70.53C102.414 70.869 100.563 72.779 98.96 73.52C98.687 73.966 99.026 75.433 98.857 75.629C98.742 75.762 95.669 76.525 95.54 76.735C95.341 77.052 95.474 78.825 95.127 79.419C94.817 79.954 93.556 80.186 93.214 80.775C94.611 81.151 96.749 81.089 98.046 81.516C98.182 81.561 98.289 81.624 98.333 81.771C98.499 82.32 96.108 87.758 95.875 88.786L91.396 91.971C90.375 92.539 89.645 90.124 88.8829 89.976L78.7101 89.799L78.3567 94.05C82.0499 94.01 85.7173 93.641 89.402 93.703L94.101 96.259C94.208 96.38 94.396 97.018 94.452 97.236C94.588 97.762 94.761 98.938 94.599 99.418C94.518 99.654 93.066 100.468 92.682 100.774C92.642 100.807 92.358 100.671 92.321 100.884C92.321 101.378 92.342 101.876 92.328 102.367C91.797 102.595 91.03 102.632 90.544 103.008C90.452 103.454 91.381 105.109 91.654 105.617C91.787 105.865 91.724 106.178 92.152 106.082V106.613C92.152 107.203 92.159 107.793 92.152 108.383V108.56C92.049 108.582 91.857 108.527 91.798 108.56C91.496 108.733 91.419 109.242 90.961 109.404C89.262 109.998 86.417 109.688 84.659 110.532L71.2722 121.397L66.1486 121.123C65.99 121.554 66.3444 123.45 66.2517 123.604C66.0858 123.877 63.8414 124.463 63.6786 124.308C63.6456 122.896 62.51 121.65 62.8748 120.235C62.9851 119.811 64.1681 117.993 64.0176 117.78L60.6707 115.996L59.2517 120.066L55.846 119.565C54.8176 120.601 53.3687 121.449 52.3486 122.448C52.024 122.768 51.35 123.904 51.1172 124.048C50.3505 124.515 48.0649 123.583 47.3096 124.663L40.3477 133.817C40.2045 134.362 41.6667 135.656 41.5678 136.342C41.372 136.574 37.7416 136.662 37.2182 137.034C36.6761 137.422 34.7749 141.451 34.4719 141.628C33.7197 142.063 32.7438 139.519 31.9658 139.723C31.6928 139.797 30.9519 140.751 30.5912 141.02C27.8264 143.07 23.721 145.075 20.5843 146.58C18.4759 147.594 15.0043 149.489 12.73 149.356L4.24918 147.317L8.99968 154.151L9.20988 155.007C7.84658 165.731 6.21328 176.418 4.77578 187.131L0.175781 190.493V191.378C1.80798 190.685 2.98378 189 4.59858 188.193C4.52438 188.768 4.37388 189.383 4.42128 189.962C3.94218 190.313 1.02998 192.163 1.59058 192.794C1.71628 192.934 2.29858 192.447 2.45718 192.333C3.32388 191.718 3.96788 190.851 4.59858 190.317C11.4904 184.448 20.5286 176.758 28.8281 173.33C36.7452 170.059 45.6124 168.316 54.2148 168.722C56.8569 168.847 59.5402 169.285 62.1422 169.444C63.2695 169.51 64.7812 170.244 65.9683 170.321L65.788 170.672L66.6721 170.499L66.3218 170.849L67.3831 170.742C73.2908 172.751 79.3026 174.447 85.2443 176.334L85.4216 176.512C85.5174 176.542 85.6792 176.482 85.775 176.512C94.207 179.191 102.637 181.968 111.066 184.651C113.299 185.362 115.57 186.075 117.789 186.774C124.331 188.846 130.858 190.962 137.422 192.968C138.495 193.296 139.276 193.695 140.43 193.852C140.563 194.037 140.755 194.133 140.961 194.206C141.053 194.239 141.223 194.173 141.314 194.206C147.222 196.34 153.341 197.815 159.171 200.141C174.578 206.283 190.64 213.405 205.696 220.394C210.878 222.802 214.509 224.563 220.199 225.88C221.501 226.182 222.801 226.337 224.091 226.588C224.213 226.609 224.479 226.861 224.622 226.941H225.153C225.293 226.41 224.507 226.521 224.091 226.41C223.866 226.352 223.572 226.293 223.383 226.233C223.446 225.997 223.493 225.761 223.56 225.525C223.675 225.109 224.191 223.748 224.537 223.578C224.932 223.382 225.094 225.046 225.507 225.17C225.418 226.351 225.736 225.837 226.391 225.524C228.057 224.727 227.228 224.934 227.154 223.633C227.102 222.711 228.37 222.976 228.967 223.209C229.62 223.464 229.826 224.172 229.963 224.245C230.195 224.374 230.608 224.219 230.891 224.289C231.212 224.366 231.433 224.677 231.775 224.647C232.28 224.607 232.678 223.684 233.047 223.611C233.515 223.519 234.186 224.289 234.702 224.027C235.34 223.703 234.886 222.737 235.097 222.372C235.126 222.32 236.003 221.664 236.062 221.65C236.733 221.465 236.988 223.227 237.533 222.689C237.624 222.601 236.88 220.913 236.825 220.389L237.533 219.681C237.806 219.637 238.133 219.714 238.417 219.681C238.372 219.353 238.48 218.918 238.417 218.619C239.109 217.417 239.415 216.113 239.301 214.726C239.397 214.7 239.514 214.406 239.832 214.623C240.215 214.889 240.219 216.083 241.243 215.788C241.318 215.069 241.206 214.472 240.628 214.007C240.436 213.852 240.013 213.892 239.99 213.738C239.847 212.791 240.333 212.377 241.243 212.599C241.612 211.526 240.072 211.659 239.861 211.327C239.74 211.135 239.843 210.501 239.648 210.217C240.894 209.999 241.472 208.429 239.976 207.939C239.597 207.813 238.129 207.526 237.739 207.508C236.869 207.461 236.202 207.349 235.487 207.298C234.898 207.258 233.077 208.046 233.725 206.76C233.788 206.631 234.433 206.181 234.698 205.876C235.266 205.805 235.118 205.532 235.228 205.345C235.38 205.083 235.704 204.914 235.582 204.46C234.252 204.04 234.277 205.552 233.19 205.536C232.924 205.532 231.878 204.608 231.86 204.522C231.713 203.866 232.147 203.755 232.578 203.575C233.359 204.596 235.663 203.362 233.817 202.691C232.928 202.37 232.18 202.65 231.262 202.356C230.831 202.444 231.281 203.457 230.186 203.587C229.398 203.679 229.644 203.211 229.228 203.112C228.218 202.869 227.566 203.746 227.802 201.803C228.189 201.895 230.275 202.294 230.098 201.537C230.035 201.268 229.335 201.18 229.25 201.054C229.161 200.914 229.246 200.6 229.121 200.394C229.088 200.339 228.262 199.716 228.203 199.697C227.521 199.51 227.569 200.335 227.399 200.516C227.229 200.696 226.88 200.633 226.684 200.745C226.503 200.848 226.566 201.08 226.551 201.091C226.172 201.379 226.149 200.623 226.024 200.387C225.947 200.247 225.907 199.978 225.807 199.896C225.7 199.812 225.564 199.882 225.494 199.856C224.373 199.477 223.249 199.996 223.374 198.355C223.396 198.068 223.699 197.869 223.724 197.733C223.802 197.663 224.056 197.6 224.078 197.556C224.546 197.773 224.723 197.677 225.139 197.556C225.198 197.537 225.272 197.577 225.316 197.556C226.3 197.069 226.123 195.908 226.378 195.786C226.441 195.756 226.621 195.8 226.731 195.786C226.846 195.771 226.974 195.804 227.085 195.786C227.409 195.727 227.833 195.753 227.947 195.318C228.109 194.703 227.524 194.82 227.438 194.724C227.321 194.591 227.059 193.419 227.085 193.132C227.246 193.01 227.549 192.608 227.615 192.424C227.826 192.461 228.146 192.372 228.323 192.424C228.858 192.578 230.815 195.122 231.301 193.721C231.603 192.847 230.741 191.878 232.038 191.716C235.757 192.604 239.413 193.721 243.106 194.709C244.264 195.018 245.465 195.107 246.541 195.605C246.7 195.679 246.567 195.899 247.249 195.958C247.359 195.969 247.492 195.965 247.602 195.958C247.79 195.944 247.971 195.874 248.133 195.781C248.059 196.592 248.306 196.765 249.113 196.684C249.438 196.651 249.342 196.352 249.492 196.315C249.714 196.263 250.185 196.37 250.252 196.307C250.326 196.237 250.108 195.603 250.543 195.452C251.303 195.19 252.446 195.758 253.26 195.607L252.018 203.477C252.025 203.65 252.537 203.558 252.729 203.569L258.832 204.291C262.802 203.868 266.856 204.207 270.855 204.104C271.828 204.9 272.566 205.354 273.859 205.519C274.058 205.519 274.08 204.476 274.132 204.277C274.674 202.264 275.242 200.292 275.724 198.261C275.775 198.043 276.185 197.704 276.07 197.306C275.978 196.989 275.462 197.077 275.395 197.004C275.189 196.775 275.959 194.173 276.081 193.661C276.232 193.011 276.324 192.175 276.434 191.714C276.448 191.658 276.42 191.592 276.434 191.536C276.441 191.506 276.684 191.315 276.743 191.057C276.994 189.977 278.269 185.306 278.202 184.635H278.379L279.087 184.812C279.183 183.746 279.397 182.666 279.618 181.627C279.629 181.568 279.761 181.439 279.795 181.274C279.861 180.949 279.81 180.547 279.973 180.212C280.765 180.577 281.849 180.621 282.626 181.096C282.6 181.185 282.6 181.708 282.626 181.804C282.755 182.276 284.737 182.409 285.28 182.512C286.161 182.683 287.052 182.881 287.933 183.043C287.711 183.736 287.019 184.241 287.049 184.989C288.862 185.594 289.094 184.554 289.88 183.219C290.226 183.285 290.598 183.315 290.941 183.397C291.095 183.434 291.284 183.523 291.472 183.574C291.874 184.337 293.557 185.606 293.867 186.232C294.022 186.541 293.561 187.151 293.418 187.467C293.186 187.968 292.467 188.886 292.883 189.325C293.042 189.491 296.109 191.054 296.507 191.191C297.627 191.574 299.48 191.936 300.672 192.068C300.763 192.079 300.963 192.463 301.202 191.891L305.448 191.714C305.47 190.505 305.735 189.184 305.801 187.998C305.813 187.821 305.79 187.644 305.801 187.467C305.886 185.948 305.919 184.381 305.979 182.866C305.993 182.453 305.96 182.036 305.979 181.627C305.993 181.274 305.967 180.919 305.979 180.565V180.388C305.99 180.06 306.137 179.773 306.156 179.504C306.16 179.445 306.156 179.386 306.156 179.327C306.167 179.128 306.193 178.302 306.156 178.265L305.268 177.819L305.448 177.022L306.152 177.199C306.152 176.598 305.367 176.797 305.625 175.96C305.673 175.897 306.067 176.211 306.152 176.138C306.491 175.846 305.805 175.761 305.79 175.68C305.635 174.869 306.243 174.998 306.328 174.894C306.604 174.551 305.963 174.515 305.974 174.464C306.012 174.276 306.299 173.907 306.328 173.66C306.342 173.545 306.314 173.421 306.328 173.306C306.365 173.026 306.295 172.705 306.328 172.422C306.361 172.149 306.262 171.854 306.62 171.739C307.213 171.544 308.831 171.777 309.609 171.721C310.608 171.651 311.654 171.691 311.636 170.475H311.813C311.757 171.382 311.654 171.761 311.282 172.595C311.754 172.705 312.226 172.834 312.697 172.953C313.59 173.174 315.149 173.296 315.874 173.757C316.788 174.336 318.436 176.96 319.327 177.907C319.563 178.158 319.821 178.449 320.127 178.615C320.183 178.645 320.216 178.781 320.393 178.793C321.167 178.458 323.558 178.91 323.82 177.96C324.023 177.226 322.32 172.227 322.611 171.899C324.819 171.416 326.898 170.458 328.973 169.591C329.043 169.562 329.23 169.643 329.37 169.584C329.481 169.537 329.824 169.065 330.21 169.061C331.379 168.961 332.296 168.404 333.394 168.176C336.398 167.554 340.157 168.346 343.217 168.003C343.375 167.985 344.65 167.686 344.713 167.646C345.277 167.867 344.963 168.67 345.288 169.017C345.583 169.331 347.06 169.733 347.544 169.946C347.544 170.038 347.717 170.304 347.721 170.558C347.735 171.358 347.714 172.158 347.721 172.955H350.374C350.412 172.28 350.323 171.587 350.374 170.909C350.393 170.651 350.548 170.4 350.552 170.301C350.795 170.253 351.281 170.437 351.454 170.193C351.919 169.548 352.144 166.96 352.722 166.279C353.153 165.778 355.066 164.871 355.763 164.28C356.319 163.808 356.404 163.473 356.74 163.045C358.446 160.881 360.042 158.626 361.789 156.487C361.686 155.396 361.77 156.026 362.32 155.624C362.622 155.403 362.773 154.846 363.049 154.758C363.437 154.632 363.996 154.857 364.351 154.643C364.83 154.351 366.695 150.075 367.343 149.368C367.594 149.084 368.806 149.047 368.921 148.867C369.072 148.635 368.774 146.769 368.766 146.235C368.766 146.209 368.932 146.099 368.936 145.954C368.976 145.084 368.439 145.22 368.413 145.173C368.336 145.03 368.468 144.362 368.413 144.111C368.476 144.081 368.53 143.964 368.59 143.934C369.139 143.665 369.95 143.499 370.337 142.938C370.713 142.393 371.258 139.635 371.59 139.414C372.047 139.108 373.754 139.547 374.561 139.201C375.15 138.951 375.596 137.833 375.666 137.211H375.844V135.087H375.666L375.707 135.099L375.724 135.097ZM202.006 167.173L202.231 165.887L202.415 164.821L202.006 167.173Z" fill="#F36F36"/>
</svg>
