<svg width="237" height="189" viewBox="0 0 237 189" fill="none" xmlns="http://www.w3.org/2000/svg">
<path d="M236.277 70.568C235.982 70.49 235.798 70.668 235.569 70.745C235.506 70.767 235.447 70.9 235.392 70.922C234.735 71.165 234.349 71.402 233.8 71.63C233.516 71.748 233.265 71.914 233.092 71.984C232.896 72.065 232.487 72.065 232.208 72.161C231.455 72.416 230.796 72.898 230.118 73.201C229.274 73.577 228.241 73.809 227.434 74.285C226.918 74.278 224.688 74.451 224.604 74.016C224.556 73.773 225.109 73.301 224.943 72.807C224.747 72.225 223.229 72.733 223.579 71.41C223.664 71.089 224.486 70.341 223.904 69.942C222.909 69.26 222.92 70.524 222.798 70.713C222.533 71.122 221.313 70.842 220.886 70.75C220.517 70.669 220.093 70.5 219.647 70.397C219.374 70.334 219.017 70.079 218.763 70.043C218.597 70.017 218.405 70.057 218.232 70.043L218.144 69.866L217.882 70.043C217.594 70.032 217.285 70.024 216.998 70.043C217.057 69.549 216.603 69.531 216.29 69.512C215.53 69.465 214.753 69.534 213.99 69.512C213.636 69.501 213.242 69.335 212.751 69.335C212.379 69.335 211.616 69.486 211.159 69.512C210.776 69.534 210.392 69.685 210.275 69.689C209.648 69.719 209.121 69.472 208.506 69.512C208.167 69 207.997 69.15 207.798 68.981C207.753 68.944 207.889 68.919 207.444 68.628C207.267 68.51 207.094 68.389 206.914 68.274C207.592 68.031 207.017 67.533 206.736 67.035C207.319 65.391 206.327 64.898 204.967 64.381C204.418 63.626 203.592 63.198 203.733 62.081L204.083 62.789C204.396 61.668 203.67 61.687 203.368 61.248C203.232 61.049 202.65 59.623 202.494 59.249C202.358 58.918 201.996 58.214 201.985 57.93C201.959 57.133 202.756 55.725 202.847 54.649C203.345 54.388 203.327 53.573 203.378 53.057C205.122 53.639 206.968 54.104 208.682 54.649C208.708 54.657 208.825 54.937 209.105 55.014C209.702 55.18 210.204 55.253 210.805 55.357C210.768 55.336 210.709 55.151 210.506 55.044C210.008 54.782 209.349 54.679 208.858 54.473C202.28 51.668 195.494 48.995 189.051 46.156C188.436 45.887 187.824 45.688 187.282 45.448C187.249 45.434 187.135 45.186 186.929 45.095C186.881 45.073 186.8 45.116 186.751 45.095C185.524 44.557 184.267 44.04 183.037 43.502C182.929 43.455 182.815 43.385 182.683 43.325C181.33 42.731 179.971 42.145 178.614 41.555C178.149 41.352 176.071 40.585 175.96 40.494C174.405 39.174 172.533 38.997 170.656 38.193C170.605 38.171 170.531 38.215 170.479 38.193C169.624 37.828 163.709 35.251 163.406 35.008C163.317 34.934 163.653 34.758 163.053 34.655C162.997 34.647 162.931 34.655 162.875 34.655C162.813 34.477 162.654 34.519 162.522 34.477C160.325 33.799 158.062 32.649 155.943 31.772C146.607 27.912 136.443 24.911 126.76 21.866C124.114 21.033 121.295 20.081 118.63 19.381C118.287 19.292 117.963 19.207 117.606 19.255C116.338 18.687 115.416 18.396 114.067 18.016C114.011 18.001 113.945 18.03 113.89 18.016C112.997 17.761 107.116 16.283 106.817 16.07C106.798 16.056 106.883 15.724 106.714 15.712C106.57 15.701 106.309 15.9 106.036 15.882C105.358 15.835 105.236 15.44 105.133 15.407C104.981 15.363 104.252 15.481 103.987 15.363C103.338 14.323 103.541 14.869 102.549 14.582C102.321 14.516 102.148 14.334 102.04 14.301C102.143 13.822 101.797 13.962 101.517 13.862C95.645 11.802 89.052 9.53398 83.0777 7.88598C82.5913 7.75298 81.9978 7.44398 81.5299 7.75298C75.8469 6.16798 70.3369 3.80899 64.5539 2.62099C64.5354 2.61399 64.4725 2.408 64.2551 2.312C63.8501 2.132 63.2339 2.08999 62.7877 2.08999C62.3085 1.91699 61.1256 1.31599 60.5907 1.37499C60.429 1.39399 60.5093 1.72099 60.4908 1.73699C60.2105 1.93599 56.0309 1.10998 55.2715 1.03298C41.4837 -0.42302 29.1212 2.899 18.0683 11.045C13.8413 14.16 9.46177 17.836 5.40067 21.202C5.22757 21.345 5.16887 21.667 5.11317 21.7C5.06167 21.733 4.82987 21.552 4.62267 21.644C4.46087 21.714 1.99087 23.723 1.88477 23.87C1.62297 24.232 1.32107 26.687 1.25407 27.31C0.870766 30.967 0.576066 34.908 0.369966 38.543C0.325666 39.302 0.399866 40.083 0.369966 40.843C0.867666 41.171 0.638866 43.062 0.723366 43.144C0.779066 43.199 1.41277 43.103 1.60757 43.144L2.13827 49.337L2.84617 49.16V49.337L3.55407 56.061C13.3179 53.978 22.9631 51.336 32.667 48.994L43.6168 51.449L40.8675 92.16L50.7044 86.7L61.0246 82.251C60.9545 82.505 61.1791 82.947 60.9143 83.154C58.9348 84.02 56.8677 84.717 54.8881 85.576C54.6563 85.676 54.4831 85.896 54.2503 85.999C53.6825 86.25 52.8869 86.217 52.5366 86.848C48.4745 88.613 44.6092 90.733 40.8675 93.13C40.5058 93.513 40.4069 95.968 40.3554 96.688C40.3409 96.894 40.2451 97.256 40.5986 97.108C40.8531 97.005 41.6672 95.984 42.0216 95.696C45.0997 93.197 46.1126 93.636 49.7141 92.773C52.3748 92.139 54.9736 91.254 57.6642 90.731C57.6601 90.392 57.7085 88.899 57.9661 88.785L74.1683 86.629C75.4873 85.465 77.5554 84.509 78.8311 83.422C80.3573 82.12 81.8679 79.521 83.4899 78.349C83.5455 78.308 84.0762 78.474 83.8433 77.906C83.7032 77.567 83.2426 77.659 82.9592 77.64C82.9705 77.526 82.9448 77.401 82.9592 77.287C83.2539 74.968 85.2221 77.331 86.3165 76.667C86.6225 76.48 89.696 71.403 90.183 70.618C90.312 70.412 90.323 70.135 90.386 70.032C90.603 69.685 90.806 69.482 91.094 68.97C91.138 68.889 91.496 68.815 91.587 68.495C91.757 67.905 91.484 66.998 91.624 66.493C91.632 66.468 91.893 66.227 91.978 66.14C93.357 64.72 94.776 66.1 96.272 65.749C96.825 65.62 97.02 65.251 97.104 64.725C97.116 64.669 97.104 64.607 97.104 64.547L97.642 63.942C97.484 62.736 96.334 61.008 96.219 59.946C96.161 59.371 96.264 58.534 96.485 58C96.681 57.528 97.023 57.429 97.104 57.292C97.845 56.967 98.432 57.266 99.05 57.292C99.533 57.311 99.611 56.827 99.758 56.408C100.16 55.253 100.13 54.413 99.935 53.223C100.393 53.26 100.908 53.171 101.35 53.223C102.364 53.345 102.75 53.957 103.65 54.285C103.657 54.649 104.078 54.867 103.989 55.22C103.933 55.438 103.495 55.688 103.337 56.002C103.227 56.215 102.872 57.576 102.946 57.643C103.297 57.631 103.654 57.661 104.008 57.643C104.697 57.61 104.166 57.226 104.454 56.584C104.675 56.086 105.847 55.361 105.95 54.361C106.076 53.129 105.361 53.126 104.719 52.687C104.305 52.403 104.508 52.303 104.011 51.979C103.693 51.773 103.13 51.614 103.307 51.182C103.576 50.518 104.368 51.292 104.541 51.271C104.785 51.238 105.175 50.135 105.249 49.856L105.603 49.678C105.603 49.726 105.846 50.555 105.883 50.585C106.079 50.737 107.398 50.833 107.531 50.718C107.531 50.014 108.22 49.365 108.36 48.79C108.478 48.306 108.19 47.78 108.53 47.205C108.851 46.659 109.754 46.976 110.078 46.265C110.336 45.694 109.812 45.093 109.716 44.591C109.462 43.289 109.473 43.046 110.026 41.892C110.398 41.505 110.563 41.479 110.734 41.008C110.752 40.956 110.715 40.882 110.734 40.831C111.313 40.889 111.706 40.326 112.061 39.949C112.525 39.456 114.648 36.529 114.917 36.436C115.773 36.499 119.686 36.101 119.989 36.798C120.081 37.011 120.177 37.62 120.107 37.822C120.099 37.844 119.845 37.911 119.789 38.117C119.719 38.371 119.532 39.805 120.107 39.592V38.53C120.778 40.06 120.302 41.701 120.277 43.212C120.251 44.657 120.31 46.109 120.284 47.554V48.085C120.207 51.362 119.938 54.256 119.753 57.463C119.739 57.729 119.76 57.972 119.753 58.171C119.749 58.289 119.757 58.407 119.753 58.525C119.543 64.512 120.461 70.513 120.107 76.397C120.095 76.559 119.793 76.862 119.926 77.342C119.978 77.529 120.273 77.441 120.284 77.459C120.328 77.533 120.454 78.878 120.468 79.133C120.534 80.173 120.247 82.362 120.494 83.177C120.601 83.528 121.021 83.616 121.265 83.83C121.67 84.192 121.246 84.295 122.053 84.361C122.112 84.365 122.171 84.361 122.23 84.361C122.831 84.707 123.086 85.352 123.558 85.776C124.302 86.443 128.065 89.234 128.824 89.543C128.902 89.573 130.222 89.779 130.417 89.801C130.557 89.815 130.987 89.583 131.073 89.668C131.25 89.852 131.095 90.645 130.542 90.376C130.299 90.597 132.304 92.204 132.562 92.333C133.081 92.595 134.906 93.086 135.241 93.365C135.606 93.667 136.284 94.994 136.896 95.425C137.279 95.694 138.061 95.801 138.268 96.085C138.411 96.281 138.438 96.571 138.673 96.918C138.68 96.8 138.665 96.682 138.673 96.564C139.008 96.646 139.07 96.952 139.023 97.272C138.964 97.398 138.761 97.05 138.673 96.918C138.651 97.257 138.661 97.988 138.967 98.172L141.149 98.689C141.705 99.555 141.441 99.36 141.761 100.288C141.827 100.48 143.07 102.353 143.187 102.4C143.405 102.492 143.515 102.363 143.449 102.138C143.283 101.585 142.661 100.733 142.413 100.166C141.422 97.895 140.139 94.584 139.919 92.136C139.741 90.175 139.83 87.248 139.919 85.235V84.881C140.092 84.151 140.648 83.023 141.013 82.337C141.146 82.09 141.083 81.777 141.511 81.872C141.511 82.813 141.436 83.881 141.511 84.8C141.555 85.342 141.422 85.257 142.041 85.235C138.58 87.72 141.186 95.011 142.598 98.215C144.533 102.609 150.146 109.836 154.775 111.424L155.483 112.486C154.104 112.202 151.277 109.927 150.094 108.943C149.524 108.468 149.055 107.851 148.495 107.358L148.229 108.066L147.703 108.15C148.178 110.082 149.022 110.374 150.268 111.601C152.641 113.935 154.632 116.048 156.437 118.875C156.673 119.247 157.34 120.744 157.428 120.806C157.867 121.124 158.003 119.955 158.309 119.922C158.464 120.663 158.029 121.267 157.956 121.954C157.709 124.302 159.283 126.558 159.548 128.943H159.017C158.737 127.542 158.405 126.163 157.779 124.873L157.436 126.561C156.683 127.044 156.024 128.039 155.128 127.88L155.306 128.942C154.856 129.119 154.609 127.953 154.247 128.238C154.217 128.26 154.041 128.813 154.14 128.949C154.32 129.204 156.595 129.594 156.012 130.181C155.832 130.365 154.796 129.639 154.423 129.83C154.184 130.321 155.503 130.873 155.127 131.242C154.936 131.434 154.39 130.903 154.158 130.896C153.852 130.885 153.517 131.247 153.185 131.247C153.259 131.652 154.991 131.523 154.774 132.039C154.586 132.478 154.026 132.098 153.672 132.157C152.552 132.341 153.381 133.233 153.167 133.529C153.112 133.606 152.562 133.62 152.316 134.008C152.073 134.391 152.132 135.04 151.929 135.567C151.594 136.434 150.72 136.954 150.355 137.798C150.325 137.798 150.105 137.952 149.824 137.975C149.626 137.662 149.095 137.828 148.763 137.798C148.531 137.779 148.288 137.823 148.055 137.798L148.025 137.791C147.922 137.761 147.612 137.65 147.347 137.62C147.237 137.606 147.108 137.62 146.994 137.62C146.695 137.62 146.713 137.263 146.286 137.974C146.031 138.398 145.98 138.771 145.578 139.213C144.848 140.013 144.372 139.965 143.455 140.274C143.259 140.34 143.016 140.359 142.747 140.452C142.375 140.581 142.282 140.691 142.039 140.805C141.914 140.864 141.67 140.813 141.413 140.967C140.424 141.561 138.652 144.093 138.402 145.218C137.981 147.124 138.634 146.581 140.094 146.999C140.152 147.017 140.281 147.125 140.447 147.176C142.906 147.924 145.972 149.056 148.401 149.576C148.619 149.62 148.899 149.709 149.112 149.653C149.447 149.775 149.363 149.978 149.466 150.184C149.72 150.7 150.03 151.212 150.174 151.776C148.751 152.805 149.227 152.115 148.22 152.381C147.726 152.51 147.634 153.144 147.346 153.284C146.937 153.483 146.462 153.291 146.06 153.376C145.883 153.413 145.824 153.689 145.754 153.726C144.328 154.453 144.279 153.958 143.274 154.157C142.979 154.216 142.687 154.578 142.573 154.611C142.046 154.762 141.36 154.681 140.881 154.954C140.564 155.134 140.346 155.672 140.084 155.931C139.897 156.116 139.458 156.153 139.414 156.23C139.288 156.433 139.498 156.948 139.303 157.273C139.186 157.469 138.82 157.495 138.628 157.623C138.507 157.705 138.514 157.97 138.389 157.985C138.135 158.011 137.737 157.789 137.358 157.789C136.3 157.789 136.706 158.21 136.51 158.718C135.872 160.377 136.178 159.758 136.34 161.295C136.461 162.431 135.65 162.275 137.088 163.109C137.158 163.149 137.364 163.069 137.441 163.109C138.603 163.703 145.712 172.122 146.991 173.726C148.325 175.4 146.213 175.672 146.813 177.266C146.902 177.498 147.454 178.405 147.562 178.467C147.853 178.629 148.347 178.246 148.384 179.134C148.384 179.212 148.118 179.182 148.056 179.345C147.986 179.525 148.093 179.845 148.052 179.92C148.033 179.953 147.414 179.765 147.872 180.366C148.163 180.749 150.492 182.563 151.004 182.895C156.949 186.755 160.09 182.025 165.655 181.336C166.197 181.27 166.912 181.439 167.391 181.329C167.557 181.292 167.435 180.845 167.951 180.975C168.036 180.997 167.963 181.351 168.295 181.347C170.473 181.314 172.766 181.081 174.94 180.802C176.016 180.662 177.063 180.423 178.124 180.271C183.877 179.449 190.368 178.52 195.749 181.48C198.672 183.087 200.014 186.608 202.881 188.234H203.412C203.729 187.652 204.702 187.309 204.13 186.542C203.618 185.857 203.275 186.892 202.87 187.096C202.498 187.28 202.447 187.018 202.351 186.996C202.494 186.608 203.269 186.476 203.206 186.06C203.003 184.736 201.747 185.293 201.116 184.43C201.591 183.659 202.156 184.268 202.863 184.147C202.951 183.593 203.608 181.853 202.465 182.071C202.133 182.134 201.824 182.919 201.381 182.926C201.185 182.886 200.876 181.393 200.939 181.337C201.009 181.274 201.875 181.702 202.598 181.138C203.947 180.084 201.367 179.84 201.297 179.733C200.962 179.195 202.045 179.003 202.421 179.077C202.572 179.106 203.372 179.943 203.767 179.567C203.87 179.467 203.343 177.846 203.236 177.797C202.086 177.271 203.362 177.827 202.882 176.913C202.824 176.803 202.871 176.736 202.705 176.56C202.598 175.781 202.145 174.403 202.352 173.677C202.396 173.522 202.713 173.459 202.868 173.268C202.997 173.106 202.978 172.711 203.174 172.655C203.605 172.534 203.904 172.869 204.125 173.193C204.169 173.259 204.025 173.551 204.214 173.551C204.505 173.595 204.641 173.315 204.833 173.193C205.139 172.997 205.448 173.053 205.541 172.574C205.615 172.186 205.574 171.262 205.464 170.874C205.346 170.454 205.018 170.671 205.01 170.362C205.567 170.476 205.983 170.845 206.599 170.715C206.342 168.721 207.083 169.808 207.639 169.455C207.805 169.348 208.174 167.767 207.842 167.439C207.097 166.695 205.826 167.546 205.652 167.516C205.413 167.476 205.099 166.779 204.657 166.824C204.428 166.318 203.982 165.994 203.773 165.762C203.651 165.629 203.537 165.53 203.419 165.408C203.22 165.202 203.117 165.084 202.889 164.878C202.756 164.76 202.583 164.741 202.535 164.7C202.505 164.674 202.495 164.328 202.285 164.165C201.806 163.793 200.284 163.251 200.254 162.68C200.35 161.191 202.76 150.676 202.348 150.201C202.282 150.124 201.934 150.234 201.831 150.194C201.743 150.157 201.588 150.072 201.478 150.017C200.306 149.437 198.154 148.041 196.926 147.756C195.695 147.473 196.311 148.545 195.552 148.612C195.456 148.619 194.406 148.317 194.229 148.247C193.742 148.063 193.06 147.557 192.459 147.363C193.462 145.799 192.655 146.065 191.575 145.593C191.232 145.446 190.874 145.21 190.514 145.062C189.651 144.709 188.571 144.318 187.683 144.001C187.805 143.325 187.573 143.58 187.296 143.421C186.772 143.119 186.267 142.998 185.736 142.762C186.26 142.776 186.732 141.298 186.798 140.816C187.277 140.941 187.144 140.462 187.328 140.108C187.733 139.333 188.275 138.544 188.39 137.63C189.171 138.282 190.204 138.92 191.043 139.576C191.518 139.948 192.754 140.748 192.99 140.991C193.016 141.017 192.916 141.241 193.093 141.36C193.359 141.537 193.9 141.522 194.229 141.522H194.759C194.829 141.271 194.652 141.164 194.582 140.991C195.043 141.021 195.028 140.725 195.168 140.427C195.577 139.564 195.957 138.561 196.174 137.629C196.314 137.437 196.38 137.581 196.527 137.098C196.602 136.85 196.557 136.597 196.705 136.214C196.878 136.228 196.978 136.199 197.058 136.036C197.504 136.015 197.799 136.445 198.12 136.567V137.098C197.442 136.939 197.386 137.415 197.891 137.599C198.094 137.673 198.304 137.599 198.473 137.629C198.517 137.758 198.44 138.005 198.473 138.159C197.983 138.407 197.987 139.796 198.473 139.398C198.499 139.288 198.443 139.125 198.473 139.045L198.826 139.222C198.786 139.428 198.852 139.706 198.826 139.93C199.317 139.856 199.733 139.768 200.241 139.753C201.085 139.731 201.097 139.653 201.656 139.576C202.065 139.52 202.633 139.576 203.071 139.576C203.101 139.576 203.293 139.76 203.602 139.753C203.805 139.749 204.037 139.58 204.132 139.576C204.483 139.568 204.843 139.597 205.194 139.576C205.621 139.55 206.332 139.672 206.676 139.554C207.029 139.432 206.897 138.839 207.251 138.714C207.585 138.597 208.629 138.777 208.732 138.692C208.802 138.482 208.567 138.272 208.555 138.162C208.412 136.812 208.57 135.15 209.439 134.091C210.593 132.686 211.08 133.45 212.623 133.561C212.727 133.652 212.841 133.715 212.977 133.738C213.426 133.815 214.244 133.752 214.746 133.738C215.244 133.723 215.546 133.62 215.985 133.561C216.099 133.546 216.228 133.579 216.338 133.561C217.035 133.439 217.879 133.531 217.753 132.425C217.742 132.325 217.016 130.633 216.949 130.556C216.769 130.334 216.098 130.04 215.804 130.021C215.612 130.01 215.313 130.18 215.096 130.198C215 130.177 214.856 130.198 214.742 130.198H214.389C214.009 129.904 213.652 129.932 213.505 129.845C213.405 129.782 213.247 129.594 213.151 129.491L213.505 128.43C213.575 128.415 213.722 128.242 213.858 128.252C213.88 128.43 213.751 128.657 214.031 128.606C214.3 127.437 214.58 126.501 215.092 125.421H215.446C215.413 125.502 215.468 125.668 215.446 125.775C215.24 125.985 215.221 126.081 215.092 126.305C215.055 126.371 215.13 126.567 215.092 126.659C215.06 126.74 214.145 127.547 215.092 127.543C214.967 126.909 215.17 126.954 215.446 126.659C215.741 126.341 215.766 126.519 215.977 125.951C216.068 125.7 216.407 125.331 215.977 125.066C216.024 124.945 216.098 124.83 216.154 124.713C216.176 124.665 216.132 124.584 216.154 124.536C216.261 124.557 216.423 124.506 216.507 124.536C216.519 124.54 216.552 124.697 216.685 124.713C217.079 124.757 217.521 124.683 217.923 124.713C217.982 124.853 217.905 124.897 218.1 125.066C218.395 125.321 218.609 125.265 218.985 125.244C219.763 125.199 219.025 124.418 219.504 124.082C219.961 123.762 221.276 124.503 221.067 123.224C221.034 123.028 220.798 123.002 220.754 122.943C220.68 122.836 220.927 122.438 220.223 122.59V122.412C220.356 122.003 221.362 122.663 221.827 122.335C222.144 122.113 221.941 121.189 221.993 120.82C222.822 120.967 222.468 121.952 223.577 121.605C224.676 121.262 223.965 120.71 223.939 120.462C223.928 120.348 223.953 120.223 223.939 120.109C224.414 119.921 224.5 119.265 223.939 119.401V118.87C224.636 118.962 225.561 119.223 225.531 118.162C225.55 118.026 225.435 118.033 225.354 117.984C225.413 117.376 225.244 117.428 224.823 117.276C224.503 117.162 224.491 117.276 224.47 117.276C224.355 117.262 224.219 117.298 224.116 117.276C224.053 117.265 223.98 117.295 223.939 117.276C223.855 116.565 223.972 116.856 224.355 116.727C224.683 116.617 225.195 116.484 225.351 116.122C225.51 115.753 225.115 115.897 224.997 115.86C224.909 115.388 225.289 115.602 225.528 115.418C225.299 115.093 224.968 115.083 224.644 114.976L224.821 114.625C224.471 114.592 224.258 114.396 224.113 114.09C224.179 114.05 224.239 113.936 224.29 113.913C225.26 113.515 225.296 112.512 224.998 111.613C224.98 111.557 224.862 111.498 224.821 111.435C224.78 111.372 224.865 111.118 224.821 111.082C224.704 110.982 224.361 111.259 224.29 111.259C224.283 111.082 224.298 110.906 224.29 110.728C225.279 110.359 224.427 109.725 224.468 109.67C224.482 109.651 224.751 109.662 224.898 109.485C225.511 108.73 226.041 107.8 225.705 106.834C225.761 106.823 225.838 106.664 225.883 106.657C225.916 106.65 226.181 106.849 226.458 106.8C226.705 106.76 227.559 106.291 227.829 106.125C227.892 106.088 228.068 106.125 228.179 106.033C228.696 105.598 229.101 103.059 229.4 102.295L229.598 102.409C229.377 103.319 228.891 104.61 228.784 105.418C228.744 105.713 228.759 105.606 228.892 105.772C228.906 105.79 228.859 105.9 228.973 105.912C229.029 105.882 229.057 105.772 229.069 105.772C229.124 105.772 229.19 105.783 229.246 105.772C229.534 105.716 229.98 105.904 230.101 105.477C230.237 104.017 230.529 102.583 230.706 101.126C230.813 100.249 230.887 100.042 230.839 99.047C230.835 98.93 230.843 98.811 230.839 98.694C230.821 98.181 230.692 97.536 230.662 96.924C230.449 92.493 230.024 88.076 230.489 83.653L230.839 84.361C230.839 82.488 231.775 80.523 231.37 78.698C231.484 78.111 231.444 77.507 231.547 76.928C231.628 76.463 231.802 75.984 231.901 75.336L232.081 75.689H232.254C232.28 75.519 232.224 75.313 232.254 75.158C232.537 75.188 232.866 75.118 233.138 75.158C233.186 75.166 233.326 75.317 233.492 75.336C234.531 75.461 234.074 75.018 234.513 74.314C234.826 73.805 235.055 73.526 235.405 72.914C235.859 72.125 236.532 71.601 236.319 70.557L236.279 70.569L236.277 70.568Z" fill="#F6D333"/>
</svg>
