<svg width="85" height="126" viewBox="0 0 85 126" fill="none" xmlns="http://www.w3.org/2000/svg">
<path d="M69.234 24.321C69.673 23.893 70.252 23.466 70.698 23.042C75.238 18.707 79.735 14.323 84.324 10.035L84.401 9.86903C84.371 9.69603 83.613 9.24301 83.435 9.10701C83.321 9.01801 83.181 9.02902 83.169 9.01802C83.148 8.99602 82.86 8.56001 82.816 8.48701C82.632 8.18102 82.55 8.03801 82.374 7.77901C82.142 7.44001 82.149 7.26001 82.021 6.98201C81.198 5.23501 80.093 3.82604 78.482 2.73604C78.169 2.52604 77.984 2.44102 77.685 2.29402C77.449 2.17902 77.295 2.12403 77.066 2.02803C76.269 1.69603 75.455 1.39002 74.589 1.14302C74.541 1.12902 74.463 1.15802 74.412 1.14302C74.087 1.05502 74.002 0.933006 73.527 0.878006C72.127 0.368006 70.579 0.328011 69.105 0.258011C64.549 0.041011 60.462 1.331 56.046 1.839C54.24 2.049 52.158 1.82101 50.389 2.11201C50.223 2.13801 50.036 2.01199 50.087 2.28999C49.962 2.28999 49.505 2.31099 49.468 2.28999C49.461 2.28599 49.501 2.131 49.412 2.105C49.258 2.065 49.146 2.197 49.113 2.201C48.616 2.234 48.108 2.171 47.61 2.201C46.574 2.26 45.436 2.40701 44.514 2.90901C44.334 2.96101 44.087 3.105 43.895 3.175C42.977 3.507 42.428 3.91203 41.595 4.32503C41.429 4.40703 41.175 4.50302 40.976 4.59102C40.622 4.61002 40.183 4.71702 39.914 4.94502C39.885 4.94902 39.856 4.94102 39.826 4.94502C38.292 5.16902 36.726 5.21804 35.226 4.76704L35.403 9.855C35.396 10.294 35.62 10.618 35.756 10.961C35.797 11.068 35.801 11.211 35.845 11.315C35.768 11.329 35.635 11.293 35.579 11.315C35.549 11.197 35.524 11.078 35.491 10.961C35.402 10.636 35.365 10.375 35.129 10.124L34.919 4.85201C33.393 4.328 32.181 3.41101 30.979 2.37801C30.799 2.10501 30.673 1.92899 30.36 1.75899C30.353 1.99799 30.477 2.20101 30.53 2.43001C30.637 2.91601 30.766 3.274 31.002 3.72701C31.256 4.214 31.802 4.67902 31.028 5.12502C30.478 5.44302 30.397 4.74204 30.044 5.02504C29.815 5.21004 30.014 5.383 29.988 5.589C29.966 5.769 29.745 6.00501 29.741 6.23701C29.741 6.38501 29.958 6.92003 29.98 7.22603C29.994 7.42503 29.865 7.62001 29.924 7.80501C29.98 7.98201 30.344 8.00402 30.485 8.22102C30.573 8.36202 30.672 8.81102 30.676 8.98402C30.695 9.58502 30.514 10.237 30.41 10.801C30.285 11.468 30.539 11.391 29.917 11.981C29.239 12.622 27.691 12.814 26.761 12.814C26.47 12.814 26.172 12.475 25.88 12.722C25.747 12.837 25.789 13.043 25.703 13.169C25.656 13.239 25.533 13.257 25.49 13.327C25.062 14.013 25.593 13.987 25.579 14.356C25.571 14.588 25.387 14.744 25.339 14.92C25.265 15.178 25.369 15.488 25.111 15.708C25.019 15.786 24.573 15.79 24.963 16.003C24.949 16.018 24.949 16.151 24.879 16.228C24.802 16.312 24.624 16.331 24.603 16.415C24.577 16.519 24.658 16.935 24.694 17.061C24.521 16.954 24.374 17.024 24.428 16.707H24.344C24.292 16.976 23.902 17.131 23.813 17.371C23.736 17.581 24.094 17.445 24.259 17.629C24.281 17.654 24.561 18.174 24.573 18.208C24.731 18.75 24.164 18.654 24.031 18.916C23.891 19.199 24.16 19.513 24.061 19.826C24.049 19.866 23.751 20.523 23.729 20.56C23.607 20.756 23.32 20.737 23.28 20.836C23.247 20.921 23.268 21.061 23.214 21.19C23.162 21.316 22.959 21.411 23.033 21.552C23.055 21.592 23.372 21.573 23.092 22.042C22.933 22.311 22.639 22.208 22.568 22.496C22.484 22.839 22.915 22.709 23.011 22.942C23.147 23.267 22.723 23.089 22.66 23.337C23.109 23.477 23.268 23.72 23.283 24.185C23.29 24.417 22.991 24.262 22.878 24.487C22.796 24.649 22.693 25.387 22.896 25.446C22.94 25.46 23.604 25.467 23.397 25.633C23.187 25.803 23.275 25.958 23.294 26.248L23.986 26.522C23.946 26.853 23.659 26.769 23.367 26.788C23.367 26.644 23.374 26.374 23.194 26.526C23.168 26.544 23.208 26.688 23.194 26.699C23.157 26.725 22.914 26.64 22.745 26.825C22.542 27.046 22.634 27.4 22.56 27.613C22.513 27.749 22.313 27.731 22.306 27.809C22.258 28.377 22.774 28.026 22.818 28.44C22.869 28.908 22.394 28.912 22.663 29.262V29.351C22.63 29.41 22.608 29.473 22.575 29.528C22.556 29.315 22.25 29.138 22.133 29.262C22.077 29.321 22.214 29.624 22.195 29.734C22.177 29.842 21.794 30.331 21.691 30.586C21.679 30.611 21.698 30.649 21.691 30.674C21.389 30.593 21.2 30.818 20.942 30.855C20.688 30.892 19.807 30.755 19.741 30.799C19.512 30.965 19.781 31.709 20.276 31.647C20.334 31.809 20.57 31.913 20.615 32.064C20.673 32.26 20.272 33.431 20.169 33.708C19.704 34.939 19.067 36.177 19.325 37.597C19.38 37.903 19.752 38.301 19.752 38.496C19.752 38.574 19.528 38.559 19.49 38.688C19.479 38.721 19.476 39.341 19.49 39.374C19.535 39.514 19.741 39.506 19.752 39.517C19.782 39.554 19.516 39.786 19.505 39.926C19.494 40.062 19.631 40.165 19.641 40.276C19.652 40.412 19.545 40.568 19.571 40.693C19.589 40.796 19.847 40.763 19.851 40.973C19.851 41.187 19.475 41.183 19.619 41.729C19.874 42.687 20.404 42.061 20.64 42.208C20.828 42.325 21.211 43.038 21.389 43.237C21.849 43.76 22.77 44.471 23.449 44.626C23.688 44.682 23.932 44.612 24.185 44.685C24.543 44.792 25.114 45.429 25.508 45.529V45.706C25.144 45.754 24.963 46.256 24.978 46.591C24.337 46.742 24.524 47.98 24.664 48.452C24.739 48.699 25.202 49.34 25.218 49.477C25.225 49.542 25.155 50.711 25.141 50.774C25.1 50.94 24.65 51.375 24.628 51.434C24.455 51.902 24.661 52.33 24.628 52.636C24.621 52.699 24.47 52.687 24.418 52.802C24.337 52.997 24.355 53.181 24.219 53.398C24.09 53.609 23.593 53.985 23.519 54.114C23.43 54.261 23.411 54.703 23.294 54.906C24.554 55.079 26.04 55.198 27.186 55.791V55.879L27.097 55.968C26.076 55.662 23.581 54.773 22.619 55.157C22.397 55.245 22.516 55.344 22.497 55.526C22.453 55.533 22.339 55.651 22.232 55.614L22.402 55.74C22.018 56.559 22.479 57.347 22.497 58.181C22.327 58.214 21.247 59.228 21.123 59.416C20.975 59.633 21.001 59.829 20.898 59.991C20.832 60.094 20.666 60.117 20.651 60.142C20.618 60.198 20.971 61.086 20.728 61.366C20.702 61.347 20.555 61.377 20.47 61.318C19.634 60.725 18.871 60.025 18.072 59.38C17.198 59.099 17.386 59.948 17.272 60.434C17.198 60.747 16.903 61.463 16.914 61.765C16.944 62.391 17.688 62.543 17.596 62.875C17.563 63 17.15 63.45 17.036 63.48C16.823 63.535 16.587 63.318 16.391 63.443C16.236 63.543 15.974 64.247 16.037 64.464C15.754 64.277 15.691 64.574 15.481 64.66C14.84 64.922 13.505 65.228 13.473 66.058C13.793 66.046 14.125 66.076 14.445 66.058V66.146H13.295C13.211 66.305 13.384 66.537 13.384 66.588C13.384 66.67 13.395 66.776 13.384 66.854C13.354 67.057 13.171 67.422 13.126 67.706C13.06 68.145 13.159 68.716 13.126 69.018C13.105 69.198 12.905 69.254 12.857 69.597C12.331 69.597 12.607 69.682 12.415 69.774C12.257 69.849 11.836 69.87 11.707 70.109C11.564 70.378 11.574 71.119 11.527 71.454C11.044 72.151 10.756 72.417 10.045 72.866C9.74301 73.058 9.31902 73.062 9.40402 73.578C9.37802 73.585 9.34101 73.659 9.31601 73.666C8.85101 73.806 9.18301 73.769 8.99501 73.939C8.89901 74.028 8.52301 74.098 8.40201 74.194C8.31001 74.264 8.35002 74.367 8.34302 74.374C8.31002 74.404 8.28401 74.43 8.25401 74.463C8.24701 74.47 8.14002 74.433 8.07402 74.522C7.96402 74.665 7.84501 74.898 7.81201 75.082C7.72801 75.09 7.48802 75.127 7.45902 75.215C7.39602 75.411 7.62002 75.33 7.63602 75.348C7.65002 75.367 7.55501 75.683 7.54701 75.791C7.54301 75.849 7.54701 75.908 7.54701 75.968C7.20101 75.879 7.14201 76.37 6.92801 76.587C6.69901 76.617 6.69201 76.709 6.57501 76.765C6.49701 76.802 6.26102 76.816 6.23102 76.865C6.13102 77.023 6.30602 77.274 6.30902 77.384C6.30902 77.398 6.15002 77.583 6.22002 77.65C6.25002 77.68 6.49302 77.624 6.57402 77.65C7.43202 77.93 7.26602 78.774 7.98802 77.473C8.00302 77.443 8.05401 77.417 8.07701 77.384H8.34302C8.52302 77.384 8.69601 77.476 8.87401 77.473C9.05101 77.543 9.42301 77.805 9.49301 77.959C9.61001 78.221 9.06502 77.882 9.22702 78.132C9.33702 78.302 9.80901 78.298 9.75801 78.796C9.41501 78.811 9.51901 79.147 9.84601 79.062C10.218 79.862 10.587 80.669 10.996 81.451C11.011 81.481 10.978 81.584 11.011 81.661C11.074 81.797 11.434 81.93 11.438 82.207C11.438 82.431 10.852 82.697 11.085 82.826C11.214 82.896 11.87 82.908 11.977 82.826C12.113 82.73 12.055 82.406 12.059 82.244L12.236 82.421V82.51C12.236 82.568 12.229 82.627 12.236 82.687C12.358 82.776 13.276 82.554 13.475 82.776C13.405 82.893 13.423 83.229 13.372 83.292C13.283 83.395 12.148 83.491 12.07 83.716L11.263 94.72C11.223 94.724 11.182 94.764 11.175 94.808L11.882 83.889C11.857 83.708 11.134 83.985 10.998 84.015C10.626 84.096 9.11202 84.394 8.89702 84.568C8.49902 84.889 8.66101 85.784 8.69801 86.228H8.25601C8.38201 86.629 8.92702 88.642 8.69502 88.878C8.66502 88.911 8.19802 88.878 8.16002 89.03L8.43402 91.578C8.41502 91.81 8.10901 91.91 8.03601 92.072C7.84401 92.488 8.41502 93.949 8.40501 94.52C8.40102 94.715 8.04301 95.294 8.43501 95.253C8.37601 95.265 8.09101 95.368 8.07701 95.401C8.01101 95.544 7.89302 96.193 8.16902 96.05C7.95802 96.588 8.05402 96.983 7.97002 97.488C7.92202 97.783 7.64901 98.126 7.64201 98.402C7.63101 98.737 8.08802 99.254 8.06302 99.696C8.04402 100.046 7.59801 101.653 7.44301 101.999C7.34301 102.224 7.06401 102.483 7.04501 102.649C7.00801 102.966 7.32602 103.751 7.36302 104.153C7.42902 104.882 7.01202 107.014 6.57802 107.592C6.25702 108.016 5.59802 108.249 5.43202 108.834C5.35402 109.1 5.76402 108.881 5.87102 108.919C5.71202 109.125 5.51301 109.365 5.39201 109.59C5.32101 109.715 5.36201 109.903 5.34401 109.936C4.83201 110.843 3.97301 111.635 3.50201 112.561C3.42701 112.704 3.33201 113.184 3.30301 113.206C3.18801 113.288 2.75401 113.066 2.69101 113.125C2.65101 113.162 2.63502 113.674 2.60202 113.744C2.36302 114.264 1.55901 115.072 1.47101 115.76C1.43801 116.029 1.55502 116.203 1.54102 116.436C1.50402 116.978 1.21601 117.405 1.17201 118.039C1.13201 118.64 1.17201 119.341 0.924012 119.853L4.46301 121.004C4.46301 121.004 4.31602 121.147 4.20102 121.059L0.85901 119.957C0.64501 119.92 0.398009 120.208 0.305009 120.385C-0.00799124 121.001 0.497017 121.295 0.485017 121.753C0.478017 122.003 0.331009 122.28 0.305009 122.553C0.268009 122.948 0.382014 123.364 0.364014 123.689C0.349014 123.936 -0.0119779 125.019 0.128022 125.164L3.57802 125.252C3.26902 124.316 3.99802 123.896 4.81702 123.748H4.85002C4.92702 123.767 5.07102 123.848 5.30702 123.66C5.99602 123.103 5.52902 122.012 5.61302 121.271C5.65302 121.285 5.73501 121.259 5.79001 121.271C5.79801 121.78 5.79801 122.269 5.87901 122.774C6.06301 122.723 6.07502 122.457 6.23702 122.377C6.34002 122.325 6.52002 122.358 6.57102 122.318C6.65302 122.252 6.60902 121.695 6.81902 121.632L9.18202 122.351L9.32202 122.477C9.28202 122.713 9.47301 124.279 9.64201 124.279C10.03 124.279 9.64202 122.977 9.62102 122.708C9.35902 119.129 10.546 117.809 11.699 114.749C12.09 113.713 12.487 112.412 12.805 111.343C13.24 109.875 13.704 108.283 13.845 106.764C14.545 106.912 15.485 106.839 16.166 107.122C16.269 107.166 16.203 107.321 16.273 107.295C16.476 107.214 16.369 106.886 16.406 106.764C16.418 106.727 16.469 106.669 16.495 106.587C16.546 106.414 16.612 106.229 16.672 106.056C16.728 105.898 16.79 105.765 16.849 105.614C17.055 105.644 17.196 105.245 17.266 105.102C17.45 104.723 17.542 104.431 17.645 104.022C17.745 103.617 17.696 103.295 17.734 103.049V102.96C17.925 102.904 17.895 102.728 17.929 102.581C18.058 102.001 18.168 101.423 18.264 100.837C18.286 100.701 18.172 100.519 18.176 100.483C18.242 99.816 18.482 99.2 18.529 98.36C18.784 97.512 18.672 96.616 18.706 95.743C18.713 95.584 18.625 95.397 18.884 95.441C18.843 96.451 18.913 97.601 18.795 98.67C18.636 100.085 18.297 101.579 18.087 102.961C18.006 103.496 17.865 104.015 17.821 104.553C18.34 104.495 18.05 103.064 18.478 103.053C18.562 103.053 18.758 103.119 18.882 103.137C19.015 103.159 19.104 103.219 19.148 103.226C18.839 103.318 19.093 103.579 19.06 103.757C19.041 103.845 18.717 104.155 18.835 104.376C18.85 104.406 19.2 104.697 19.3 104.797C19.44 104.933 19.381 104.956 19.591 104.818C19.451 105.485 19.164 106.367 19.149 107.03L17.557 106.764C17.583 106.923 17.738 106.916 17.852 106.952C18.243 107.078 18.736 107.118 19.145 107.207C19.48 107.277 20.361 107.361 20.594 107.468C20.734 107.531 20.557 107.763 20.737 107.737C20.759 106.653 21.394 105.739 21.813 104.789C21.949 104.482 22.009 104.147 22.122 103.863C22.17 103.745 22.328 103.763 22.328 103.704C22.328 102.96 22.428 102.469 22.502 101.721H24.447C24.407 102.458 24.241 103.189 24.27 103.933L23.916 103.844C23.825 104.136 24.155 103.947 24.185 104.069C24.255 104.345 24.071 104.71 24.094 104.995L24.428 104.578L24.624 102.075C25.07 102.159 25.498 102.163 25.952 102.163L29.538 103.66C30.16 103.744 30.717 103.435 31.307 103.314C31.466 103.281 31.664 103.424 31.613 103.136C32.368 103.475 33.899 104.191 34.672 104.187C34.754 104.187 34.78 104.116 34.798 104.109C34.89 104.083 35.207 103.892 35.24 103.843C35.535 103.921 35.907 103.67 36.158 103.692C36.663 103.739 38.082 104.459 38.775 104.599C38.952 104.636 39.125 104.662 39.305 104.636L41.844 99.324C42.249 99.405 43.621 99.394 43.558 99.991L41.697 102.604C41.893 102.63 41.992 102.6 42.146 102.479C42.194 102.442 42.824 101.639 42.909 101.516C42.956 101.45 42.923 101.38 42.935 101.364C43.126 101.575 42.563 102.19 43.023 102.161C43.049 101.818 43.167 101.417 43.289 101.1C43.444 100.702 43.621 100.562 43.754 100.274C43.85 100.075 43.846 99.622 43.99 99.367C44.016 99.32 44.325 98.969 44.399 98.884C44.521 98.743 44.554 98.905 44.701 98.884C44.848 99.05 43.721 99.868 44.435 99.945C44.475 99.625 45.066 99.141 45.143 98.928C45.228 98.699 44.834 98.851 44.877 98.751C45.183 98.581 45.09 98.275 45.223 98.035C45.621 97.309 46.542 96.638 46.646 95.786C46.986 96.063 47.093 95.407 47.266 95.167C47.542 94.779 47.664 94.54 47.885 94.194C47.708 94.227 47.317 94.898 47.177 95.078C47.107 95.17 47.056 95.274 46.956 95.344C46.886 95.355 46.904 95.267 46.911 95.211C46.923 95.034 47.187 93.851 47.246 93.689C47.316 93.501 49.266 90.75 49.479 90.526C49.693 90.304 50.202 89.932 50.279 90.437C50.319 90.699 49.634 91.705 49.446 91.992C48.956 92.741 48.374 93.43 47.887 94.193C48.13 94.148 48.205 94.377 48.418 94.37C48.525 93.486 49.302 92.792 49.781 92.062C50.16 91.483 50.614 90.521 51.034 90.042C51.177 89.876 51.488 89.747 51.561 89.589C51.624 89.453 51.531 89.312 51.579 89.175C51.745 88.736 52.066 88.095 52.29 87.667C52.349 87.553 52.468 87.494 52.486 87.468C52.475 87.513 52.46 87.653 52.53 87.646C52.626 87.646 52.545 87.506 52.575 87.468C52.63 87.391 52.729 87.387 52.796 87.207C52.932 86.838 52.962 86.384 53.102 86.005C53.327 85.4 53.656 84.822 53.88 84.217C55.704 79.325 56.793 74.197 58.156 69.161C58.425 69.139 58.698 69.139 58.967 69.175C60.058 69.323 60.832 69.809 62.041 69.861C62.34 70.156 62.933 70.24 63.191 69.861C62.837 69.854 62.483 69.868 62.129 69.861L62.395 68.446C62.816 68.254 63.158 67.952 63.722 67.738C64.293 67.52 63.973 67.62 64.253 67.384C64.492 67.185 64.791 67.141 64.961 67.031C65.146 67.023 65.558 67.576 65.669 67.473C65.868 67.285 65.072 67.093 65.138 66.853C65.22 66.739 65.29 66.367 65.404 66.278C65.504 66.201 65.552 66.43 65.67 66.374C65.892 66.278 66.098 65.659 66.378 65.526C66.492 65.559 66.588 65.345 66.909 65.614C66.983 65.677 67.104 65.872 67.175 65.968C67.278 66.104 67.484 66.554 67.579 66.58C67.874 66.672 67.823 66.384 67.881 66.322C67.952 66.241 67.973 66.492 68.059 66.057C68.11 65.791 68.449 65.71 68.678 65.791C68.788 65.828 69.101 66.281 69.43 66.064C69.781 65.835 70.938 63.859 71.107 63.398C71.497 62.351 71.416 61.334 70.798 60.39C70.882 60.268 70.971 60.151 71.064 60.036C71.089 60.003 71.215 59.989 71.229 59.893C71.292 59.521 70.72 59.65 71.506 58.975C71.742 58.771 71.826 58.764 72.036 58.621C72.651 58.197 73.293 57.987 73.451 57.206C73.466 57.14 73.573 57.051 73.54 56.94C73.388 56.951 73.245 56.94 73.098 56.896C72.866 56.821 71.221 56.177 71.148 56.103C71.041 55.993 71.059 55.837 71.064 55.701C70.787 55.627 70.928 55.959 70.673 55.967C70.418 55.975 69.755 55.579 69.471 55.476C69.376 55.443 68.962 55.392 68.852 55.347C68.665 55.273 68.447 55.167 68.233 55.082C67.153 54.654 66.069 54.053 64.96 53.666C65.262 53.53 65.653 53.563 65.981 53.575C66.372 53.589 66.696 53.895 66.729 53.313C66.446 53.276 66.054 53.11 65.823 52.955C65.104 52.487 63.188 49.154 62.952 48.288C62.608 47.016 63.158 44.425 63.279 43.006C63.622 39.039 63.803 35.024 64.429 31.105L64.252 31.194C64.322 30.652 64.138 29.83 64.289 29.332C64.304 29.281 64.927 28.5 64.974 28.47C65.082 28.411 65.273 28.477 65.309 28.451C65.324 28.44 65.232 28.308 65.243 28.245C65.269 28.123 66.718 26.63 66.943 26.416C67.307 26.066 67.768 25.764 68.097 25.358L68.23 25.624C68.314 25.082 68.86 24.673 69.247 24.296V24.322L69.243 24.326L69.234 24.321ZM43.914 31.444L44.566 29.815L44.5 29.981L43.914 31.444Z" fill="#2F62AD"/>
</svg>
